<svg width="18" height="21" viewBox="0 0 18 21" fill="none" xmlns="http://www.w3.org/2000/svg">
<path id="Vector" d="M7.69002 20.54C4.54002 20.54 2.16002 18.97 1.23002 16.75C0.210016 14.32 0.690014 11.8 2.54001 9.95C5.20001 7.28 7.86001 4.61 10.54 1.96C12.2 0.310004 14.63 0.300007 16.45 1.87001C18.09 3.29001 18.43 5.83 17.15 7.56C16.7 8.17 16.14 8.72001 15.6 9.26001C13.51 11.37 11.42 13.47 9.32003 15.56C8.05003 16.82 6.42002 16.91 5.25002 15.8C4.07002 14.68 4.04002 12.99 5.22002 11.79C6.86002 10.13 8.52001 8.48001 10.18 6.83001C10.51 6.50001 10.84 6.16001 11.18 5.83001C11.66 5.36001 12.01 5.31001 12.35 5.66001C12.68 5.99001 12.63 6.3 12.15 6.77C10.29 8.64 8.43003 10.5 6.57003 12.37C6.36003 12.58 6.16003 12.8 5.99003 13.04C5.63003 13.56 5.71002 14.27 6.14002 14.73C6.56002 15.18 7.21002 15.3 7.77002 14.99C8.01002 14.86 8.24002 14.69 8.44002 14.49C10.79 12.15 13.14 9.82 15.47 7.46C16.7 6.21 16.88 4.68 15.99 3.38C15.04 1.98 13.01 1.66001 11.7 2.72001C11.35 3.00001 11.02 3.32 10.7 3.64C8.40002 5.93 6.11003 8.22 3.82003 10.52C2.57003 11.77 1.90002 13.24 2.20002 15.06C2.52002 16.98 3.65002 18.26 5.44002 18.89C7.17002 19.49 8.81001 19.16 10.18 17.93C12.2 16.11 14.05 14.1 15.99 12.2C16.19 12 16.38 11.8 16.58 11.61C16.97 11.24 17.26 11.22 17.58 11.53C17.9 11.85 17.89 12.14 17.52 12.52C16.88 13.17 16.24 13.8 15.6 14.45C14.16 15.89 12.72 17.34 11.27 18.78C10.08 19.95 8.64002 20.52 7.69002 20.54Z" fill="#B20000"/>
</svg>
