<svg width="36" height="40" viewBox="0 0 36 40" fill="none" xmlns="http://www.w3.org/2000/svg">
<g id="Group">
<g id="Group_2">
<path id="Vector" d="M17.96 20C17.22 19.96 16.84 19.55 16.45 19.16C11.44 14.13 6.42996 9.11004 1.42996 4.07004C0.359961 2.99004 0.259978 2.23004 1.00998 1.45004C1.80998 0.620041 2.68997 0.690029 3.74997 1.75003C8.14997 6.13003 12.5499 10.51 16.9099 14.93C17.7499 15.79 18.26 15.8501 19.13 14.9601C23.36 10.6401 27.65 6.39002 31.92 2.12002C32.25 1.79002 32.58 1.46004 32.96 1.20004C33.69 0.680041 34.42 0.810022 35.01 1.43002C35.62 2.06002 35.62 2.79004 35.12 3.51004C34.97 3.71004 34.79 3.90004 34.61 4.07004C29.6 9.10004 24.6 14.13 19.59 19.16C19.09 19.66 18.59 20.1 17.96 20Z" fill="#B20000"/>
<path id="Vector_2" d="M35.4499 21.27C35.4799 22.13 35.1699 22.58 34.7799 22.98C29.6799 28.1 24.5899 33.23 19.4799 38.34C18.4399 39.38 17.5999 39.36 16.5299 38.29C11.4499 33.21 6.37992 28.12 1.31992 23.02C0.339921 22.03 0.279943 21.26 1.02994 20.5C1.81994 19.7 2.6599 19.74 3.6699 20.75C8.0699 25.13 12.4499 29.54 16.8399 33.93C18.0099 35.1 18.0199 35.1 19.2099 33.91C23.5399 29.58 27.8699 25.25 32.2099 20.92C32.8499 20.28 33.4899 19.62 34.5199 20.15C35.0799 20.43 35.4299 20.88 35.4499 21.27Z" fill="#B20000"/>
</g>
</g>
</svg>
