<svg width="211" height="30" viewBox="0 0 211 30" fill="none" xmlns="http://www.w3.org/2000/svg">
<g id="icons">
<g id="Group">
<g id="Group_2">
<path id="Vector" d="M15.37 8.31C18.93 8.31 21.91 11.26 21.92 14.8C21.93 18.31 18.92 21.31 15.39 21.32C11.84 21.32 8.80999 18.37 8.85999 14.82C8.91999 10.9 12.05 8.31 15.37 8.31ZM19.87 14.83C19.88 12.29 17.9 10.28 15.39 10.28C12.88 10.28 10.91 12.23 10.9 14.74C10.89 17.32 12.8 19.31 15.34 19.33C17.89 19.35 19.87 17.38 19.87 14.83Z" fill="#B20000"/>
<path id="Vector_2" d="M14.4099 3.28003C14.4099 2.57003 14.4099 1.86002 14.4099 1.15002C14.4099 0.520021 14.6899 0.110004 15.3499 0.0700044C15.9199 0.0300044 16.3299 0.429973 16.3499 1.09997C16.3799 2.58997 16.3699 4.09001 16.3499 5.58001C16.3399 6.18001 15.9799 6.55999 15.3799 6.54998C14.7699 6.54998 14.4399 6.15999 14.4199 5.55999C14.3999 4.79999 14.4199 4.04003 14.4099 3.28003Z" fill="#B20000"/>
<path id="Vector_3" d="M14.41 26.34C14.41 25.63 14.4 24.92 14.41 24.21C14.43 23.47 14.78 23.06 15.36 23.05C15.95 23.04 16.34 23.45 16.35 24.17C16.37 25.59 16.37 27.01 16.35 28.43C16.34 29.16 15.96 29.56 15.36 29.55C14.76 29.54 14.42 29.15 14.41 28.4C14.4 27.71 14.41 27.02 14.41 26.34Z" fill="#B20000"/>
<path id="Vector_4" d="M26.8499 15.73C26.1099 15.73 25.3799 15.73 24.6499 15.73C24.1199 15.73 23.7399 15.53 23.6699 14.96C23.5999 14.34 23.8999 13.92 24.4899 13.87C26.0999 13.73 27.7199 13.72 29.3299 13.87C29.8899 13.92 30.2099 14.33 30.1499 14.9C30.0899 15.47 29.7099 15.74 29.1299 15.73C28.3599 15.72 27.5999 15.73 26.8499 15.73Z" fill="#B20000"/>
<path id="Vector_5" d="M3.85992 15.73C3.12992 15.73 2.38993 15.73 1.65993 15.73C1.07993 15.73 0.699922 15.47 0.639922 14.9C0.579922 14.29 0.939922 13.9 1.52992 13.85C3.08992 13.72 4.65992 13.73 6.21992 13.84C6.78992 13.88 7.15992 14.24 7.11992 14.88C7.07992 15.54 6.66993 15.74 6.06993 15.73C5.32993 15.72 4.58992 15.73 3.85992 15.73Z" fill="#B20000"/>
<path id="Vector_6" d="M4.68994 24.57C4.70994 24.19 4.86995 23.91 5.09995 23.69C6.07995 22.73 7.04993 21.76 8.03993 20.82C8.62993 20.26 9.15995 20.23 9.56995 20.7C10.0699 21.26 9.78994 21.73 9.35994 22.16C8.39994 23.13 7.44993 24.12 6.47993 25.08C6.13993 25.42 5.73993 25.66 5.22993 25.42C4.85993 25.24 4.70994 24.92 4.68994 24.57Z" fill="#B20000"/>
<path id="Vector_7" d="M26.08 24.56C26.07 25.24 25.43 25.69 24.8 25.43C24.62 25.36 24.4499 25.25 24.3099 25.12C23.3099 24.11 22.31 23.1 21.32 22.07C20.84 21.57 20.82 21.04 21.25 20.65C21.73 20.22 22.21 20.33 22.63 20.74C23.67 21.74 24.7 22.76 25.72 23.78C25.95 23.98 26.09 24.24 26.08 24.56Z" fill="#B20000"/>
<path id="Vector_8" d="M5.63992 4.12C5.91992 4.14 6.16992 4.22999 6.36992 4.42999C7.42992 5.48999 8.47992 6.54999 9.51992 7.62C9.88992 8 9.92992 8.47001 9.57992 8.89001C9.22992 9.30001 8.73992 9.40998 8.33992 9.03998C7.15992 7.92998 6.01992 6.79 4.88992 5.63C4.61992 5.35 4.58992 4.96998 4.79992 4.59998C4.97992 4.25998 5.26992 4.13 5.63992 4.12Z" fill="#B20000"/>
<path id="Vector_9" d="M21.9299 9.22996C21.5399 9.18996 21.2499 9.08 21.0899 8.77C20.9099 8.44 20.8799 8.08997 21.1299 7.79997C22.2099 6.55997 23.3699 5.40998 24.5899 4.30998C24.9799 3.95998 25.4899 4.01998 25.8399 4.42998C26.2699 4.92998 26.1099 5.44998 25.6899 5.86998C24.7099 6.85998 23.7099 7.83998 22.7099 8.80998C22.6099 8.90998 22.4899 9.01 22.3599 9.08C22.2099 9.15 22.0399 9.18996 21.9299 9.22996Z" fill="#B20000"/>
</g>
</g>
<g id="Group_3">
<g id="Group_4">
<path id="Vector_10" d="M75.68 18.62C73.01 18.62 70.35 18.64 67.68 18.62C64.7 18.59 62.5 16.83 61.78 13.96C61.16 11.49 62.16 8.82998 64.27 7.49998C64.82 7.14998 65.07 6.79 65.14 6.09C65.4 3.41 66.75 1.43999 69.18 0.519994C71.63 -0.410006 73.89 0.109992 75.75 2.07999C76.23 2.59999 76.57 2.68997 77.22 2.36997C79.81 1.08997 83.22 2.61997 84.2 5.48997C84.43 6.17997 84.74 6.53995 85.45 6.71995C88.17 7.38995 89.99 10.01 89.84 12.9C89.69 15.75 87.62 18.08 84.86 18.51C84.3 18.6 83.75 18.63 83.18 18.63C80.69 18.62 78.19 18.62 75.68 18.62ZM75.73 16.56C78.51 16.55 81.3 16.58 84.08 16.54C86.35 16.51 87.89 14.8199 87.88 12.4699C87.87 10.1699 86.34 8.58999 84.05 8.51999C83.01 8.49 82.77 8.24999 82.64 7.13999C82.54 6.29999 82.24 5.52998 81.63 4.93998C80.3 3.65998 78.5 3.60995 77.02 4.78995C76.16 5.47995 75.71 5.38998 75.16 4.43998C74.9 3.97998 74.61 3.53998 74.2 3.18998C72.7 1.89998 71.03 1.74 69.34 2.59C67.74 3.4 66.96 4.85995 67.11 6.71995C67.21 7.84995 66.85 8.42996 65.81 8.85996C63.73 9.69996 63.1 11.8699 63.8 13.9699C64.38 15.6799 65.66 16.53 67.57 16.55C70.3 16.58 73.01 16.56 75.73 16.56Z" fill="#B20000"/>
<path id="Vector_11" d="M66.9499 29.51C65.0099 29.51 63.6599 27.46 64.4499 25.53C65.0199 24.14 65.7799 22.84 66.4799 21.52C66.7299 21.06 67.1699 21.07 67.4199 21.53C68.0999 22.81 68.8399 24.07 69.3999 25.4C70.2599 27.4 68.9599 29.51 66.9499 29.51ZM67.74 26.67C67.73 26.14 67.19 25.05 66.96 25.04C66.71 25.03 66.12 26.17 66.16 26.65C66.2 27.16 66.3999 27.55 66.9699 27.53C67.5499 27.5 67.71 27.1 67.74 26.67Z" fill="#B20000"/>
<path id="Vector_12" d="M87.2 26.61C87.16 27.83 86.67 28.78 85.57 29.28C84.53 29.75 83.53 29.57 82.69 28.79C81.82 27.99 81.59 26.91 81.91 25.78C82.28 24.49 83.08 23.39 83.66 22.2C83.85 21.82 83.91 21.23 84.47 21.2C85.05 21.18 85.1 21.79 85.31 22.16C85.85 23.13 86.34 24.13 86.84 25.12C87.09 25.59 87.22 26.08 87.2 26.61ZM85.2899 26.63C85.2299 26.08 84.98 25.62 84.7 25.17C84.59 24.99 84.41 24.96 84.3 25.15C84.04 25.6 83.71 26.04 83.71 26.6C83.71 27.12 83.9199 27.5 84.4799 27.52C85.0599 27.54 85.2199 27.12 85.2899 26.63Z" fill="#B20000"/>
<path id="Vector_13" d="M75.73 29.51C73.72 29.51 72.41 27.37 73.27 25.4C73.84 24.09 74.55 22.8499 75.22 21.5999C75.51 21.0599 75.96 21.0599 76.24 21.5999C76.91 22.8499 77.62 24.1 78.19 25.4C79.05 27.36 77.73 29.51 75.73 29.51ZM76.49 26.5399C76.49 26.0599 76.19 25.6199 75.94 25.1599C75.81 24.9299 75.63 24.96 75.51 25.18C75.26 25.64 74.95 26.08 74.97 26.65C74.99 27.15 75.18 27.5 75.7 27.51C76.27 27.53 76.47 27.1599 76.49 26.5399Z" fill="#B20000"/>
</g>
</g>
<g id="Group_5">
<g id="Group_6">
<path id="Vector_14" d="M122.22 10.97C121.04 10.28 120.04 9.69003 119.03 9.09003C118.64 8.86003 118.36 8.55 118.44 8.06C118.51 7.64 118.79 7.41001 119.2 7.32001C119.57 7.24001 119.89 7.42003 120.19 7.59003C120.92 8.01003 121.65 8.42999 122.39 8.85999C122.59 8.96999 122.77 9.13998 123.14 9.15998C122.97 8.53998 122.81 7.94999 122.65 7.35999C122.37 6.30999 122.53 5.78003 123.19 5.59003C123.77 5.42003 124.17 5.79999 124.47 6.85999C124.78 7.93999 125.06 9.03 125.35 10.12C125.44 10.44 125.55 10.73 125.87 10.91C126.98 11.52 128.08 12.14 129.18 12.78C129.68 13.07 129.83 12.92 129.82 12.38C129.8 11.16 129.8 9.93998 129.82 8.71998C129.82 8.28998 129.67 7.95998 129.37 7.65998C128.52 6.81998 127.68 5.97 126.84 5.12C126.59 4.87 126.35 4.59003 126.37 4.21003C126.39 3.83003 126.6 3.55003 126.96 3.40003C127.33 3.24003 127.64 3.36001 127.92 3.63001C128.49 4.17001 129.07 4.69999 129.82 5.16999C129.82 4.30999 129.81 3.45998 129.82 2.59998C129.83 2.19998 129.85 1.79998 129.92 1.40998C130 0.95998 130.31 0.710019 130.76 0.700019C131.24 0.690019 131.57 0.920032 131.68 1.40003C131.86 2.19003 131.75 2.99004 131.77 3.78004C131.78 4.24004 131.77 4.69999 131.77 5.16999C132.18 5.13999 132.29 4.88003 132.47 4.71003C132.82 4.40003 133.14 4.05 133.49 3.74C134.07 3.22 134.57 3.19002 134.97 3.64002C135.33 4.04002 135.26 4.58002 134.78 5.08002C133.99 5.89002 133.22 6.70999 132.4 7.47999C131.93 7.91999 131.74 8.39004 131.76 9.03004C131.8 10.13 131.77 11.24 131.77 12.34C131.77 13.06 131.84 13.1 132.48 12.73C133.54 12.12 134.58 11.49 135.64 10.89C136.01 10.68 136.14 10.36 136.24 9.99C136.57 8.77 136.89 7.54002 137.25 6.33002C137.4 5.82002 137.76 5.47003 138.36 5.59003C138.91 5.71003 139.18 6.21999 139.04 6.85999C139.01 7.01999 138.95 7.18002 138.91 7.33002C138.75 7.91002 138.6 8.50001 138.38 9.32001C139.16 8.88002 139.78 8.53 140.39 8.18C140.84 7.93 141.28 7.64999 141.74 7.41999C142.25 7.16999 142.73 7.28004 143.02 7.78004C143.34 8.32004 143.08 8.75004 142.62 9.03004C141.8 9.54004 140.96 10 140.13 10.49C139.92 10.62 139.65 10.68 139.52 11.04C140.09 11.19 140.65 11.33 141.2 11.48C141.47 11.56 141.75 11.62 142 11.74C142.45 11.95 142.71 12.32 142.56 12.82C142.41 13.31 142.01 13.52 141.51 13.45C141.12 13.4 140.73 13.28 140.35 13.18C139.74 13.02 139.09 12.93 138.52 12.67C137.4 12.16 136.47 12.45 135.52 13.11C134.79 13.62 133.99 14.02 133.21 14.45C132.82 14.67 132.7 14.85 133.17 15.12C134.31 15.77 135.45 16.43 136.58 17.1C136.86 17.27 137.13 17.29 137.45 17.21C138.72 16.86 139.98 16.52 141.25 16.18C141.76 16.04 142.19 16.14 142.48 16.6C142.8 17.12 142.5 17.71 141.79 17.94C141.06 18.17 140.31 18.36 139.56 18.56C139.62 18.94 139.91 18.98 140.12 19.1C140.94 19.6 141.79 20.06 142.61 20.56C143.07 20.84 143.34 21.27 143.03 21.81C142.72 22.35 142.21 22.43 141.69 22.15C140.82 21.69 139.97 21.18 139.12 20.7C138.94 20.6 138.79 20.43 138.5 20.46C138.57 21.19 138.83 21.86 139 22.55C139.19 23.3 138.98 23.83 138.41 23.99C137.84 24.15 137.4 23.83 137.18 23.05C136.88 21.99 136.57 20.93 136.32 19.86C136.17 19.25 135.89 18.82 135.32 18.52C134.32 18 133.36 17.41 132.4 16.83C131.98 16.58 131.77 16.6 131.78 17.16C131.8 18.43 131.8 19.69 131.78 20.96C131.78 21.38 131.96 21.66 132.24 21.94C133.08 22.79 133.91 23.66 134.73 24.52C135.28 25.09 135.35 25.57 134.93 25.98C134.53 26.38 133.99 26.32 133.44 25.81C132.93 25.34 132.49 24.8 131.78 24.3C131.78 25.24 131.79 26.06 131.78 26.87C131.78 27.27 131.77 27.67 131.71 28.06C131.63 28.59 131.33 28.91 130.76 28.9C130.22 28.89 129.96 28.56 129.88 28.06C129.74 27.13 129.85 26.18 129.81 25.25C129.8 24.98 129.86 24.7 129.69 24.34C129.22 24.77 128.8 25.17 128.38 25.56C128.21 25.72 128.06 25.91 127.87 26.04C127.43 26.35 126.98 26.35 126.6 25.94C126.23 25.55 126.28 25.1 126.62 24.74C127.27 24.03 127.9 23.29 128.64 22.68C129.57 21.91 129.95 21.01 129.83 19.8C129.74 18.92 129.8 18.02 129.81 17.13C129.81 16.67 129.68 16.52 129.23 16.79C128.12 17.45 127.01 18.1 125.89 18.75C125.54 18.95 125.43 19.26 125.33 19.6C125.05 20.64 124.77 21.68 124.48 22.72C124.41 22.97 124.33 23.22 124.23 23.45C124.02 23.93 123.64 24.13 123.14 23.98C122.61 23.83 122.37 23.42 122.49 22.89C122.67 22.09 122.89 21.31 123.12 20.44C122.48 20.55 122.06 20.94 121.59 21.2C121.03 21.5 120.5 21.85 119.94 22.14C119.34 22.45 118.79 22.32 118.53 21.82C118.23 21.23 118.52 20.82 119.01 20.53C120.01 19.93 121.02 19.34 122.12 18.7C121.55 18.36 121 18.32 120.51 18.15C120.27 18.07 120.01 18.03 119.76 17.94C119.14 17.73 118.81 17.26 118.99 16.79C119.2 16.22 119.65 16.02 120.23 16.17C121.14 16.4 122.07 16.59 122.94 16.91C124.01 17.3 124.94 17.3 125.89 16.57C126.61 16.02 127.46 15.64 128.25 15.18C128.82 14.84 128.82 14.75 128.23 14.41C127.18 13.79 126.11 13.19 125.07 12.57C124.72 12.36 124.39 12.31 124 12.42C122.9 12.74 121.78 13.03 120.67 13.33C120.47 13.38 120.26 13.44 120.05 13.46C119.52 13.51 119.1 13.31 118.97 12.78C118.84 12.27 119.12 11.9 119.58 11.73C120.17 11.52 120.8 11.39 121.41 11.22C121.64 11.17 121.83 11.1 122.22 10.97Z" fill="#B20000"/>
<path id="Vector_15" d="M144.87 6.07002C144.87 5.55002 145.21 5.27999 145.49 4.96999C146.59 3.78999 146.59 3.79004 145.48 2.65004C145.35 2.52004 145.21 2.38 145.1 2.23C144.81 1.83 144.73 1.40003 145.1 1.02003C145.48 0.630035 145.93 0.590027 146.36 0.950027C146.79 1.31003 147.2 1.69999 147.59 2.09999C147.87 2.38999 148.09 2.36004 148.36 2.09004C148.72 1.72004 149.09 1.36003 149.47 1.02003C149.89 0.640035 150.36 0.570015 150.79 1.00002C151.22 1.44002 151.1 1.89001 150.73 2.31001C150.39 2.69001 150.04 3.07002 149.68 3.44002C149.41 3.72002 149.44 3.94999 149.71 4.21999C150.09 4.59999 150.45 4.99999 150.81 5.40999C151.15 5.79999 151.18 6.22 150.8 6.61C150.42 7 149.98 7.05001 149.55 6.68001C149.14 6.33001 148.75 5.96002 148.37 5.57002C148.1 5.30002 147.88 5.26004 147.59 5.53004C147.17 5.93004 146.74 6.33004 146.29 6.71004C146.02 6.94004 145.71 7.00002 145.37 6.82002C145.06 6.64002 144.89 6.38002 144.87 6.07002Z" fill="#B20000"/>
<path id="Vector_16" d="M152.8 18.35C152.55 18.35 152.34 18.25 152.16 18.09C151.95 17.9 151.75 17.71 151.55 17.51C150.59 16.56 150.59 16.56 149.6 17.53C149.4 17.73 149.21 17.94 148.99 18.11C148.59 18.43 148.17 18.45 147.78 18.08C147.39 17.71 147.38 17.29 147.7 16.89C148.01 16.51 148.33 16.12 148.71 15.82C149.24 15.39 149.17 15.05 148.69 14.64C148.38 14.39 148.13 14.08 147.85 13.79C147.43 13.37 147.28 12.92 147.74 12.44C148.15 12 148.59 12.02 149.15 12.52C149.43 12.77 149.71 13.02 149.95 13.31C150.37 13.82 150.75 13.88 151.19 13.33C151.39 13.08 151.65 12.87 151.89 12.64C152.55 12.03 152.96 11.96 153.4 12.41C153.86 12.87 153.79 13.3 153.14 13.97C152.9 14.22 152.65 14.48 152.41 14.73C152.05 15.1 152.02 15.43 152.44 15.8C152.82 16.14 153.17 16.53 153.51 16.91C153.75 17.18 153.77 17.51 153.59 17.83C153.42 18.14 153.16 18.33 152.8 18.35Z" fill="#B20000"/>
</g>
</g>
<g id="Group_7">
<g id="Group_8">
<path id="Vector_17" d="M194.79 13.52C198.31 13.52 201.84 13.6 205.36 13.49C208.05 13.41 210.49 15.65 210.59 18.49C210.68 21.18 208.42 23.55 205.61 23.7C204.81 23.74 204.01 23.73 203.21 23.7C202.25 23.67 201.67 23.13 201.67 22.31C201.67 21.49 202.25 21 203.23 20.98C204.05 20.96 204.88 21.06 205.69 20.92C207.08 20.68 207.86 19.68 207.76 18.29C207.67 17.07 206.71 16.24 205.34 16.24C200.32 16.23 195.29 16.24 190.26 16.24C188.26 16.24 186.27 16.24 184.27 16.24C183.97 16.24 183.66 16.23 183.36 16.16C182.65 16 182.18 15.37 182.26 14.73C182.35 13.99 182.85 13.52 183.65 13.52C187.36 13.51 191.07 13.52 194.79 13.52Z" fill="#B20000"/>
<path id="Vector_18" d="M193.01 10.92C190.07 10.92 187.14 10.92 184.2 10.92C182.94 10.92 182.27 10.44 182.25 9.56002C182.23 8.66002 182.93 8.16 184.22 8.16C190.07 8.16 195.92 8.16 201.76 8.16C203.3 8.16 204.24 7.21005 204.22 5.71005C204.2 4.43005 203.31 3.51004 202.01 3.45004C201.19 3.42004 200.36 3.47 199.55 3.41C198.61 3.35 198.06 2.72005 198.15 1.90005C198.22 1.27005 198.68 0.759995 199.35 0.719995C200.45 0.649995 201.56 0.580034 202.66 0.760034C205.28 1.18003 207.2 3.48 207.06 5.98C206.91 8.71 204.8 10.84 202.02 10.9C199.02 10.97 196.01 10.92 193 10.92C193.01 10.92 193.01 10.92 193.01 10.92Z" fill="#B20000"/>
<path id="Vector_19" d="M187.5 21.48C186.28 21.48 185.06 21.49 183.84 21.48C182.88 21.47 182.27 20.95 182.25 20.14C182.23 19.34 182.85 18.75 183.79 18.75C186.4 18.73 189.01 18.7 191.61 18.76C194.3 18.83 196.53 21.24 196.48 23.91C196.44 26.65 194.15 28.93 191.42 28.94C190.62 28.94 189.82 28.95 189.02 28.94C188.16 28.92 187.59 28.4 187.56 27.63C187.53 26.84 188.11 26.25 188.99 26.21C189.74 26.18 190.49 26.21 191.24 26.2C192.66 26.19 193.63 25.26 193.65 23.91C193.67 22.51 192.72 21.51 191.29 21.48C190.04 21.46 188.77 21.48 187.5 21.48Z" fill="#B20000"/>
</g>
</g>
</g>
</svg>
