<?xml version="1.0" encoding="utf-8"?>
<!-- Generator: Adobe Illustrator 26.1.0, SVG Export Plug-In . SVG Version: 6.00 Build 0)  -->
<svg version="1.1" id="Слой_1" xmlns="http://www.w3.org/2000/svg" xmlns:xlink="http://www.w3.org/1999/xlink" x="0px" y="0px"
	 viewBox="0 0 1080 1080" style="enable-background:new 0 0 1080 1080;" xml:space="preserve">
<path d="M533.11,630.69H390.84l-96.45-139.06c-9.4-13.55-31.67-13.15-40.09,0.92c-24.63,41.15-38.6,88.2-38.6,138.14h-120
	c0-101.53,42.06-194.38,111.36-265.01c17.16-17.56,36.06-33.77,56.4-48.3c67.61-48.58,151.18-79.71,242.35-85.79
	c13.89-0.93,25.74,9.1,25.74,21.68v65.31c0,11.27-9.59,20.53-22.01,21.54c-45.2,3.68-87.76,15.81-125.71,34.64
	c-11.59,5.75-15.18,19.3-8.16,29.42L417,463.8l0.06-0.33L533.11,630.69z"/>
<path d="M240.4,785.81h-32.54L185.8,754c-2.15-3.1-7.25-3.01-9.17,0.21c-5.63,9.41-8.83,20.18-8.83,31.6h-27.45
	c0-23.22,9.62-44.46,25.47-60.62c3.93-4.02,8.25-7.72,12.9-11.05c15.47-11.11,34.58-18.23,55.44-19.63
	c3.18-0.21,5.89,2.08,5.89,4.96v14.94c0,2.58-2.19,4.7-5.04,4.93c-10.34,0.84-20.08,3.62-28.76,7.92c-2.65,1.32-3.47,4.41-1.87,6.73
	l9.46,13.64l0.01-0.07L240.4,785.81z"/>
<path d="M981.67,630.73H861.66c0-120.07-80.69-223.42-195.63-268.1v268.1H545.85V248.26c0-9.8,9.16-17.6,20.11-17.04
	C797.61,244,981.67,418.32,981.67,630.73z"/>
<path d="M585.74,783.23h-27.31c0-27.32-18.36-50.84-44.52-61.01v61.01h-27.35V696.2c0-2.23,2.09-4.01,4.58-3.88
	C543.85,695.23,585.74,734.89,585.74,783.23z"/>
<path d="M252.92,785.81v-88.92c0-2.17,1.76-3.92,3.92-3.92h21.97c2.17,0,3.92,1.76,3.92,3.92v23.67c0,2.17,1.76,3.92,3.92,3.92
	h19.95c2.17,0,3.92-1.76,3.92-3.92v-23.67c0-2.17,1.76-3.92,3.92-3.92h21.97c2.17,0,3.92,1.76,3.92,3.92v88.92h-29.81v-32.07
	c0-2.17-1.76-3.92-3.92-3.92h-19.95c-2.17,0-3.92,1.76-3.92,3.92v32.07H252.92z"/>
<path d="M590.23,736.9c0-15.13,4.32-27.06,12.95-35.8s20.41-13.11,35.33-13.11c14.88,0,26.62,4.37,35.23,13.11
	c8.61,8.74,12.92,20.67,12.92,35.8c0,15.09-4.31,27.01-12.92,35.77c-8.61,8.76-20.36,13.14-35.23,13.14
	c-14.92,0-26.69-4.38-35.33-13.14S590.23,751.99,590.23,736.9z M620.3,736.9c0,8.78,1.47,15.23,4.41,19.35s7.54,6.18,13.8,6.18
	c6.22,0,10.78-2.05,13.68-6.15c2.9-4.1,4.35-10.56,4.35-19.38c0-8.87-1.45-15.35-4.35-19.45c-2.9-4.1-7.46-6.15-13.68-6.15
	c-6.26,0-10.86,2.06-13.8,6.18S620.3,728.08,620.3,736.9z"/>
<path d="M730.49,783.23h-26.98v-86.11c0-3.72,3.02-6.74,6.74-6.74h24.45c3.03,0,5.68,2.02,6.49,4.94l11.49,41.39
	c0.17,0.63,0.5,2.07,1.01,4.32c0.5,2.25,1.22,5.35,2.14,9.3c0.59-3.11,1.13-5.83,1.64-8.16c0.5-2.33,0.95-4.09,1.32-5.26
	l11.79-41.62c0.82-2.9,3.47-4.9,6.48-4.9h24.41c3.72,0,6.74,3.02,6.74,6.74v86.11h-26.98l0.25-45.7c0-2.77,0.01-5.47,0.03-8.1
	c0.02-2.63,0.05-5.35,0.09-8.16c-1.01,4.79-2.23,10.02-3.66,15.69l-0.19,0.82l-11.47,45.45h-20.8l-11.6-44.44
	c-0.55-2.02-1.09-4.33-1.64-6.93s-1.26-6.14-2.14-10.59c0.13,3.99,0.22,7.42,0.28,10.27c0.06,2.86,0.09,5.15,0.09,6.87V783.23z"/>
<path d="M941.31,783.23v-27.86h27.36v27.86H941.31z"/>
<path d="M437.54,706.46c-8.98-9.43-21.44-14.15-37.36-14.15c-15.84,0-28.38,4.36-37.63,13.08c-9.16,8.63-13.79,20.55-13.79,35.5
	c0,14.5,4.54,25.98,13.52,34.43c8.99,8.54,21.26,12.81,36.56,12.81c13.7,0,24.73-2.49,33.09-7.47c6.67-4,11.48-9.61,14.41-16.64
	c1.16-2.58-0.71-5.6-3.56-5.6h-26.15c-1.51,0-2.76,0.98-3.56,2.22c-0.89,1.42-2.05,2.49-3.65,3.38c-2.22,1.25-5.16,1.96-8.63,1.96
	c-5.07,0-9.07-1.6-11.92-4.72c-2.85-3.02-4.36-7.47-4.54-13.17l62.01-0.09c2.22,0,4.18-1.6,4.63-3.83v-0.36c0.09-0.53,0-1.07,0-1.6
	c0,0,0,0,0-0.09C450.36,727.1,445.91,715.27,437.54,706.46z M384.35,730.12c0.27-5.16,1.69-9.25,4.45-12.19
	c2.67-2.94,6.41-4.36,11.03-4.36c5.07,0,8.9,1.33,11.65,4.09c2.67,2.76,4.18,6.94,4.54,12.45H384.35z"/>
<path d="M912.42,703.14c-8.98-9.43-21.44-14.15-37.36-14.15c-15.84,0-28.38,4.36-37.63,13.08c-9.16,8.63-13.79,20.55-13.79,35.5
	c0,14.5,4.54,25.98,13.52,34.43c8.99,8.54,21.26,12.81,36.56,12.81c13.7,0,24.73-2.49,33.09-7.47c6.67-4,11.48-9.61,14.41-16.64
	c1.16-2.58-0.71-5.6-3.56-5.6h-26.15c-1.51,0-2.76,0.98-3.56,2.22c-0.89,1.42-2.05,2.49-3.65,3.38c-2.22,1.25-5.16,1.96-8.63,1.96
	c-5.07,0-9.07-1.6-11.92-4.72c-2.85-3.02-4.36-7.47-4.54-13.17l62.01-0.09c2.22,0,4.18-1.6,4.63-3.83v-0.36c0.09-0.53,0-1.07,0-1.6
	c0,0,0,0,0-0.09C925.23,723.78,920.78,711.95,912.42,703.14z M859.22,726.8c0.27-5.16,1.69-9.25,4.45-12.19
	c2.67-2.94,6.41-4.36,11.03-4.36c5.07,0,8.9,1.33,11.65,4.09c2.67,2.76,4.18,6.94,4.54,12.45H859.22z"/>
</svg>
