<?xml version="1.0" encoding="utf-8"?>
<!-- Generator: Adobe Illustrator 26.1.0, SVG Export Plug-In . SVG Version: 6.00 Build 0)  -->
<svg version="1.1" id="Слой_1" xmlns="http://www.w3.org/2000/svg" xmlns:xlink="http://www.w3.org/1999/xlink" x="0px" y="0px"
	 viewBox="0 0 640 1000" style="enable-background:new 0 0 640 1000;" xml:space="preserve">
<g>
	<g>
		<path d="M415.56,213.48c5.92,0,11.83,0,17.75,0c0.47,0.09,0.94,0.24,1.41,0.27c8.05,0.45,15.76,2.48,23.35,5.04
			c19.63,6.6,35.93,18.4,50.15,33.1c15.6,16.12,28.28,34.44,38.85,54.21c7.39,13.83,13.79,28.12,19.48,42.73
			c4.01,10.29,7.35,20.81,10.56,31.34c3.86,12.67,7.15,25.54,9.75,38.56c1.22,6.11,2.66,12.18,3.67,18.33
			c1.08,6.54,2.09,13.09,3.14,19.64c0.27,1.65,0.83,3.25,0.94,4.94c0.44,7.18,1.33,14.32,2.2,21.45c1.39,11.51,2.3,23.06,2.59,34.65
			c0.23,9.03,0.08,18.06,0.1,27.1c0,2.15-0.09,4.31,0.29,6.45c0,4.16,0,8.32,0,12.48c-0.09,1.11-0.26,2.22-0.27,3.33
			c-0.02,14.24-0.89,28.42-2.35,42.59c-1.52,14.72-3.84,29.31-6.15,43.91c-1.38,8.68-3.38,17.25-5.26,25.84
			c-3.55,16.18-7.97,32.11-13.1,47.85c-10.39,31.9-24.48,61.98-43.76,89.51c-10.66,15.22-23.12,28.77-37.91,40.12
			c-15.4,11.81-32.5,19.62-51.8,22.39c-2.6,0.37-5.26,0.42-7.81,1.14c-4.16,0-8.32,0-12.47,0c-2.27-0.53-4.57-0.78-6.89-0.77
			c-3.04,0.01-6.09-0.03-9.08-0.6c-2.7-0.52-5.4-0.57-8.11-0.49c-4,0.11-8-0.2-11.97-0.53c-10.35-0.87-20.57-2.78-30.82-4.42
			c-7.35-1.18-14.53-3.09-21.71-5.01c-33.08-8.83-63.61-23.15-91.61-42.86c-3.67-2.58-7.58-4.78-11.7-6.56
			c-7.65-3.31-14.93-7.33-22.07-11.58c-24.24-14.42-45.01-32.88-62.77-54.73c-10.77-13.25-20.26-27.36-27.46-42.93
			c-2.57-5.55-6.02-10.53-10.22-15.01c-4.07-4.33-7.4-9.23-10.21-14.46c-1.89-3.52-3.74-7.07-5.48-10.67
			c-8.27-17.17-12.48-35.36-13.35-54.35c-0.09-1.96-0.68-3.49-1.97-4.95c-3.73-4.21-6.13-9.13-7.41-14.61
			c-0.6-2.57-1.02-5.18-1.28-7.8c-0.65-6.58,0.21-12.88,3.33-18.85c2.2-4.21,4.68-8.2,7.85-11.72c1.26-1.4,1.89-2.92,1.75-4.78
			c-0.07-0.88-0.08-1.76-0.06-2.64c0.04-1.69-0.78-2.69-2.38-3.14c-0.77-0.22-1.52-0.49-2.27-0.77c-4.61-1.74-9.03-3.76-11.57-8.36
			c0-1.28,0-2.56,0-3.84c0.71-0.85,0.91-1.85,0.85-2.92c-0.19-3.11,1.39-5.12,4-6.52c1.98-1.06,4-2,6.14-2.7
			c2.41-0.79,2.53-0.91,1.66-3.2c-2.66-7-4.21-14.23-4.95-21.67c-0.44-4.39-0.79-8.76,0.26-13.11c0.26-1.09,0.39-2.2,0.55-3.31
			c1.89-12.5,5.68-24.26,13.31-34.55c0.38-0.51,0.68-1.08,1.06-1.6c1.79-2.43,2.8-5.19,3.34-8.14c0.46-2.52,1.04-5.01,1.78-7.46
			c2.78-9.29,6.29-18.31,10.62-26.97c12.17-24.39,27.92-46.03,49.36-63.2c2.2-1.76,4.15-3.75,5.82-6.01
			c5.51-7.48,11.72-14.38,18.08-21.12c11.45-12.14,24.21-22.76,37.64-32.63c25.28-18.58,53.21-31.74,83.11-40.81
			c6.47-1.96,13.09-3.59,19.78-4.85c6.59-1.24,13.14-2.61,19.84-3.2c8.71-0.76,17.24-2.42,25.48-5.4c1.5-0.54,3.07-0.91,4.62-1.26
			c8.72-1.97,17.42-4.08,26.31-5.26c3.16-0.42,6.29-1.16,9.39-1.9C404.81,214.96,410.17,214.14,415.56,213.48z M551.7,571.59
			c4,0,8-0.09,11.99,0.02c7.03,0.2,14.07,0.27,21.1,0.09c2.59-0.07,3.17-0.75,3.31-3.37c0.03-0.56,0.04-1.12,0.05-1.68
			c0.02-9.6-0.07-19.19,0.08-28.79c0.24-14.98-0.95-29.89-2.17-44.78c-0.92-11.14-2.03-22.28-3.63-33.36
			c-0.61-4.22-0.56-4.34-4.89-4.38c-6.4-0.05-12.79,0.07-19.19,0.12c-3.12,0.03-6.24,0-9.35,0.14c-7.66,0.35-15.32,1.09-22.98,1.09
			c-6.9-0.01-13.71,0.9-20.55,1.39c-7.49,0.54-14.98,1.09-22.46,1.72c-4.54,0.38-9.07,0.78-13.6,1.26
			c-4.29,0.45-8.55,1.29-12.85,1.49c-10.47,0.48-20.79,2.34-31.2,3.35c-8.26,0.81-16.45,2.29-24.65,3.63
			c-5.36,0.87-10.78,1.06-16.13,2.18c-7.26,1.52-14.66,2.37-21.99,3.55c-16.49,2.66-32.86,5.94-49.22,9.24
			c-16.21,3.28-32.28,7.19-48.42,10.83c-1.73,0.39-2.16,0.93-2.34,2.83c-0.3,3.02-0.54,6.05-0.5,9.1c0.06,4.96,0.25,9.92-0.82,14.81
			c-0.12,0.54-0.07,1.12-0.09,1.67c-0.33,10.55-0.13,21.11-0.17,31.67c0,0.32,0,0.64,0.03,0.96c0.16,1.63,0.58,2.22,2.17,2.32
			c3.99,0.25,7.92,1.04,11.93,1.12c3.59,0.07,7.19,0.29,10.77,0.61c3.9,0.35,7.78,0.83,11.71,0.8c1.68-0.01,3.36,0.03,5.03,0.17
			c6.29,0.53,12.56,1.25,18.85,1.63c8.45,0.5,16.91,1.08,25.36,1.37c11.59,0.4,23.12,1.42,34.68,2.06
			c10.69,0.59,21.4,0.55,32.09,1.39c11.63,0.91,23.32,0.34,34.97,1.38c8.74,0.78,17.57,0.79,26.35,0.98
			c15.5,0.34,31.01,0.32,46.51,1.04C531.55,571.72,541.63,571.26,551.7,571.59z M553.84,690.84c3.44,0,6.88,0.03,10.31-0.01
			c2.22-0.02,2.45-0.21,3.06-2.25c0.71-2.37,1.37-4.76,1.83-7.2c0.56-2.98,1.01-6.01,1.82-8.92c2.14-7.72,3.13-15.67,4.74-23.49
			c1.36-6.57,2.16-13.25,3.15-19.89c1.14-7.59,2.32-15.17,2.38-22.88c0.01-1.51,0.28-3.02,0.52-4.52c0.67-4.11,0.94-8.26,1.25-12.4
			c0.17-2.34-0.31-2.74-2.72-2.85c-0.24-0.01-0.48-0.01-0.72-0.02c-9.51-0.29-19.02,0.03-28.53-0.34c-7.74-0.3-15.5-0.06-23.25-0.46
			c-9.02-0.45-18.06-0.46-27.09-0.54c-10.71-0.09-21.4-0.36-32.11-0.85c-10.37-0.48-20.75-1.02-31.14-1.2
			c-6.15-0.1-12.3-0.31-18.46-0.48c-0.72-0.02-1.43-0.11-2.15-0.15c-3.91-0.24-7.81-0.63-11.72-0.69
			c-6.39-0.09-12.81,0.04-19.16-0.68c-8.11-0.91-16.26-1.05-24.38-1.64c-6.84-0.5-13.73-0.53-20.58-1.03
			c-7.73-0.57-15.46-1.04-23.2-1.43c-8.7-0.43-17.37-1.3-26.07-1.65c-3.19-0.13-6.39-0.27-9.57-0.5
			c-6.29-0.45-12.59-0.93-18.88-1.38c-1.54-0.11-1.82,0.11-1.9,1.69c-0.07,1.35-0.11,2.73,0.08,4.07c0.65,4.6,0.95,9.22,0.88,13.87
			c-0.02,1.12,0.07,2.24,0.19,3.35c1.18,10.56,2.39,21.12,3.54,31.69c0.17,1.59,1.02,2.35,2.41,2.91
			c16.08,6.54,32.55,11.96,48.98,17.51c10.45,3.53,21.03,6.63,31.66,9.59c26.56,7.4,53.27,14.17,80.4,19.19
			c10.29,1.9,20.55,3.97,30.93,5.3c11.64,1.5,23.23,3.4,34.92,4.52c9.54,0.91,19.06,2.11,28.63,2.59
			C533.87,690.2,543.84,690.97,553.84,690.84z M543.37,341.74c-3.59,0.31-7.01,0.84-10.43,0.86c-10.49,0.05-20.91,1-31.31,2.13
			c-12.23,1.33-24.42,2.92-36.56,4.91c-8.52,1.4-16.98,3.13-25.39,4.97c-19.21,4.19-38.16,9.46-56.96,15.22
			c-16.51,5.06-32.74,10.99-48.77,17.4c-18.49,7.39-36.55,15.76-54.42,24.54c-3.11,1.53-4.88,3.58-5.39,6.99
			c-1.32,8.77-3.63,17.35-4.99,26.13c-1.86,12-4.24,23.92-4.73,36.11c-0.11,2.84-0.17,2.92,2.63,2.19
			c8.51-2.21,17.12-3.95,25.68-5.92c10.5-2.42,21.01-4.88,31.63-6.76c8.65-1.54,17.27-3.27,25.92-4.78c11.48-2,23-3.83,34.49-5.83
			c3-0.52,6.07-0.51,9.03-1.11c6.82-1.39,13.74-2.09,20.6-3.14c5.21-0.79,10.47-1.26,15.69-1.96c3.56-0.48,7.1-1.11,10.68-1.44
			c5.09-0.48,10.17-1.02,15.25-1.57c6.35-0.7,12.68-1.6,19.05-2.12c8.52-0.69,17.04-1.33,25.57-1.93
			c8.29-0.57,16.55-1.41,24.87-1.64c9.98-0.27,19.96-0.9,29.94-1.2c6.79-0.2,13.59-0.1,20.39-0.13c0.72,0,1.44,0,2.16-0.06
			c1.05-0.09,1.59-0.7,1.57-1.74c-0.01-0.63-0.07-1.29-0.24-1.9c-0.89-3.33-1.36-6.73-2.02-10.11
			c-4.82-24.68-11.42-48.87-19.96-72.53c-1.49-4.14-3.05-8.25-4.58-12.37c-0.34-0.9-0.62-2.02-1.73-2.09
			C548.38,342.7,545.87,341.7,543.37,341.74z M269.22,643.84c-0.18,0.11-0.35,0.21-0.53,0.32c0.97,2.56,0.34,5.24,0.85,7.83
			c2.34,11.92,4.76,23.83,7.41,35.69c1.67,7.49,4.12,14.78,6.01,22.22c0.34,1.33,1.23,2.19,2.39,2.85c2.36,1.35,4.69,2.75,7.04,4.11
			c42.81,24.92,88.03,43.96,136.07,56.24c22.66,5.79,45.59,9.79,68.87,11.88c2.23,0.2,4.48,0.18,6.7,0.42
			c7.25,0.8,14.54,0.36,21.79,0.82c2.01,0.13,3.27-0.81,4.22-2.53c6.2-11.2,11.99-22.59,16.89-34.43
			c5.81-14.05,10.85-28.37,15.29-42.91c1.12-3.67,1.15-3.68-2.74-3.77c-6.39-0.15-12.79-0.03-19.18-0.41
			c-6.62-0.39-13.21-1.15-19.86-1.12c-2.07,0.01-4.14-0.34-6.2-0.56c-7.23-0.74-14.46-1.51-21.69-2.22
			c-3.97-0.39-8.03-0.35-11.92-1.14c-7.07-1.43-14.25-1.92-21.34-3.06c-7.88-1.27-15.77-2.53-23.65-3.85
			c-10.56-1.77-20.96-4.34-31.51-6.19c-5.67-0.99-11.18-2.69-16.8-3.91c-8.9-1.93-17.69-4.31-26.49-6.65
			c-29.76-7.92-59.02-17.41-87.85-28.23C271.75,644.76,270.49,644.3,269.22,643.84z M545.74,329.12c-0.09-0.26-0.18-0.66-0.37-1
			c-2.52-4.46-4.16-9.33-6.69-13.8c-3.5-6.19-6.94-12.43-10.59-18.53c-7.12-11.9-15.31-23.03-24.59-33.34
			c-0.6-0.66-1.22-1.26-2.17-1.36c-3.64-0.4-7.24-1.26-10.96-0.99c-2.79,0.2-5.58,0.25-8.37,0.46c-7.41,0.58-14.76,1.65-22.17,2.19
			c-6.61,0.48-13.11,1.93-19.65,3c-9.15,1.5-18.14,3.76-27.14,5.97c-19.62,4.81-38.55,11.67-57.13,19.44
			c-13.27,5.55-26.13,12.05-38.81,18.86c-6.58,3.53-6.58,3.53-9.68,10.27c-0.1,0.22-0.19,0.44-0.29,0.66
			c-6.86,14.2-12.68,28.82-17.93,43.68c-3.73,10.56-6.74,21.32-9.38,32.19c-0.04,0.16-0.09,0.31-0.12,0.47
			c-0.2,1.19,0.18,1.56,1.26,1.06c1.81-0.84,3.54-1.86,5.35-2.71c14.47-6.78,29.08-13.26,43.93-19.19
			c22.07-8.81,44.57-16.32,67.34-23.06c19.4-5.74,39.08-10.34,58.98-13.94c11.15-2.01,22.33-3.95,33.62-5.16
			c5.16-0.55,10.29-1.48,15.46-1.87c10.75-0.81,21.53-1.39,32.31-1.59c2.07-0.04,4.14-0.29,6.21-0.45
			C544.9,330.34,545.6,330.2,545.74,329.12z M461.88,857.36c3.3,0,6.54-0.41,9.77-1.01c2.8-0.52,5.32-1.67,7.61-3.35
			c6.14-4.5,11.93-9.4,17.35-14.74c8.57-8.44,16.13-17.73,22.98-27.61c0.64-0.92,1.34-1.8,1.92-2.75c0.62-1.01,0.42-1.44-0.76-1.61
			c-1.5-0.21-3.01-0.39-4.53-0.48c-6.94-0.4-13.87-0.78-20.79-1.43c-8.9-0.84-17.82-1.39-26.65-2.96
			c-6.6-1.18-13.26-1.87-19.83-3.31c-8.58-1.88-17.21-3.56-25.73-5.72c-15.34-3.89-30.51-8.38-45.41-13.75
			c-16.09-5.81-31.97-12.15-47.53-19.29c-11.27-5.17-22.28-10.83-33.2-16.69c-0.63-0.34-1.26-0.71-1.94-0.94
			c-0.79-0.28-1.24,0.17-1.04,0.98c0.07,0.31,0.24,0.59,0.36,0.89c2.59,6.27,6.04,12.17,7.94,18.73c0.09,0.3,0.24,0.59,0.37,0.88
			c6.26,13.96,13.43,27.42,21.84,40.2c5.5,8.36,11.34,16.46,17.95,23.98c1.6,1.82,3.32,3.51,5.64,4.35
			c8.64,3.11,16.99,7.01,25.84,9.58c6.37,1.85,12.66,3.96,19.07,5.64c7.64,2.01,15.31,4.02,23.11,5.31
			c7.16,1.18,14.3,2.48,21.54,3.31C445.79,856.49,453.85,856.6,461.88,857.36z M140.58,640.44c-0.14,0.15-0.27,0.29-0.41,0.44
			c1.83,2.62,3.13,5.52,4.72,8.27c8.91,15.47,18.81,30.3,29.51,44.57c13.31,17.74,27.65,34.6,43.57,50.07
			c1.26,1.23,2.62,1.97,4.38,2.21c4.67,0.65,9.34,1.31,13.97,2.16c8.82,1.63,17.74,2.25,26.68,2.68c5.66,0.28,11.35,0.14,17,0.81
			c0.95,0.11,1.92,0.11,2.87,0.03c1.81-0.15,2.27-0.84,1.72-2.52c-0.25-0.76-0.59-1.48-0.91-2.22c-1.69-3.98-3.3-7.98-4.49-12.14
			c-0.54-1.9-1.59-3.22-3.28-4.2c-3.81-2.2-7.62-4.39-11.34-6.74c-16.36-10.36-32.23-21.41-47.48-33.36
			c-17.32-13.57-34.09-27.79-49.63-43.38c-2.1-2.11-4.37-3.27-7.29-3.65c-3.56-0.45-7.13-0.91-10.65-1.66
			C146.57,641.21,143.56,640.9,140.58,640.44z M153.54,401.74c0.48,0.23,1.01,0.08,1.54-0.09c4.41-1.44,8.97-2.33,13.41-3.61
			c6.02-1.74,12.14-2.76,18.27-3.82c1.78-0.31,3.38-0.95,4.7-2.2c1.74-1.65,3.55-3.23,5.19-4.97c8.52-9.02,17.75-17.28,27.07-25.45
			c12.09-10.61,24.77-20.46,37.95-29.67c11.87-8.29,23.86-16.4,36.5-23.44c3.69-2.06,5.47-5.17,7.34-8.49
			c0.47-0.84,0.06-1.37-0.85-1.52c-0.31-0.05-0.64-0.06-0.96-0.05c-5.58,0.33-11.19-0.17-16.76,0.53c-2.93,0.37-5.86,0.77-8.8,1.03
			c-6.85,0.59-13.64,1.53-20.42,2.64c-9.63,1.58-19.11,3.82-28.56,6.22c-1.81,0.46-3.43,1.23-4.82,2.54
			c-9.99,9.35-19.28,19.37-28.45,29.51c-5.74,6.35-10.77,13.28-15.98,20.07c-9.65,12.58-18.2,25.89-26.16,39.58
			C153.57,400.87,153.29,401.2,153.54,401.74z M136.74,513.74c2.98-0.68,6.04-0.39,9.06-0.65c5.09-0.43,10.17-0.9,15.3-0.91
			c2.86-0.01,5.81-0.04,8.51-1.12c4.76-1.9,9.71-3.2,14.56-4.82c13.86-4.64,27.97-8.48,42-12.58c7.89-2.3,15.77-4.7,23.84-6.34
			c1.19-0.24,1.81-0.86,1.97-2.05c0.25-1.9,0.61-3.79,0.81-5.69c0.83-7.94,1.61-15.87,2.88-23.77c1.7-10.57,3.31-21.15,5.48-31.63
			c0.14-0.69,0.62-1.55,0.02-2.04c-0.78-0.63-1.45,0.29-2.1,0.63c-16.53,8.62-32.27,18.58-47.81,28.83
			c-19.37,12.76-37.85,26.74-55.46,41.85c-6.97,5.99-13.74,12.2-20.35,18.59c-0.37,0.36-1.07,0.65-0.7,1.34
			c0.26,0.48,0.85,0.32,1.31,0.36C136.26,513.76,136.5,513.74,136.74,513.74z M490.45,250.26c0.05-0.18,0.1-0.35,0.15-0.53
			c-0.9-0.77-1.81-1.52-2.69-2.31c-8.78-7.84-18.56-14.15-29.31-18.89c-4.66-2.06-9.32-4.29-14.45-5.05c-3.48-0.51-7-0.62-10.5-0.91
			c-3.76-0.31-7.48-0.43-11.23,0.06c-2.21,0.29-4.43,0.66-6.68,0.61c-2.8-0.07-5.58,0.22-8.37,0.47c-4.75,0.42-9.24,1.63-13.63,3.47
			c-9.2,3.85-17.53,9.19-25.68,14.82c-3.87,2.68-7.42,5.83-10.88,9.04c-11.7,10.89-21.9,23.06-30.83,36.3
			c-1.5,2.22-2.47,4.7-3.85,7.44c0.95-0.4,1.46-0.59,1.96-0.83c5-2.32,10-4.65,15-6.98c12.47-5.81,25.27-10.83,38.23-15.41
			c8.21-2.9,16.57-5.34,24.97-7.67c18.2-5.05,36.54-9.25,55.34-11.34c8.65-0.96,17.29-2.05,26.04-1.86
			C486.17,250.74,488.31,250.41,490.45,250.26z M596.97,548.44c0-1.6,0.04-3.2-0.01-4.8c-0.3-11.02,0.45-22.04-0.62-33.07
			c-1.06-10.89-1.69-21.83-2.82-32.72c-1.55-14.95-3.88-29.79-6.17-44.63c-0.6-3.88-1.92-7.59-2.63-11.45
			c-1.6-8.73-3.67-17.37-5.85-25.96c-2.66-10.46-6.08-20.71-9.52-30.94c-7.67-22.8-17.24-44.76-29.12-65.68
			c-6.68-11.78-14.39-22.85-23.02-33.31c-8.95-10.85-18.89-20.62-30.24-28.94c-2.58-1.89-5.21-3.71-8-5.29
			c-1.56-0.89-3.23-1.37-5.05-1.21c-0.82,0.07-1.67,0.16-1.92,1.1c-0.22,0.86,0.45,1.29,1.06,1.69c0.27,0.18,0.54,0.34,0.8,0.52
			c3.8,2.65,7.74,5.13,11.33,8.07c2.59,2.13,5.14,4.32,7.7,6.5c1.37,1.17,2.86,1.95,4.72,2.09c3.8,0.29,5.8,2.35,5.88,6.14
			c0.04,1.64,0.62,2.89,1.7,4.07c2.11,2.3,4.21,4.61,6.18,7.02c14.71,17.91,26.32,37.72,35.93,58.76c0.67,1.48,1.42,2.95,2.93,3.68
			c2.86,1.39,3.48,4.19,4.46,6.77c0.26,0.68,0.17,1.47-0.17,2.11c-0.82,1.53-0.43,2.92,0.32,4.32c0.34,0.63,0.58,1.32,0.84,1.99
			c6.03,15.17,11.11,30.67,15.46,46.39c4.54,16.42,8.3,33.02,11.01,49.85c0.13,0.81,0.22,1.67,1.06,2.02
			c1.79,0.74,2.09,2.27,2.23,3.91c0.08,0.96,0.08,1.92,0.19,2.87c0.16,1.38,0.18,2.7-0.68,3.91c-0.49,0.68-0.58,1.53-0.37,2.31
			c0.98,3.74,0.91,7.63,1.66,11.37c1.56,7.87,1.84,15.87,2.67,23.81c0.36,3.49,0.17,7.05,0.65,10.53c1.18,8.5,1.35,17.05,1.6,25.6
			c0.39,13.51,0.05,27.03-0.01,40.54c0,1.04-0.24,2.17,0.33,3.06c1.97,3.1,0.58,6.4,0.71,9.61c0.01,0.36-0.18,0.87-0.46,1.07
			c-1.64,1.21-1.57,3.04-1.81,4.76c-1.09,7.85-1.16,15.78-1.96,23.65c-0.79,7.79-1.79,15.57-2.79,23.33
			c-0.71,5.53-1.65,11.05-2.61,16.56c-1.14,6.54-2.41,13.04-3.76,19.54c-2.49,11.98-5.12,23.91-8.6,35.65
			c-6.1,20.56-12.99,40.84-22.12,60.29c-4.55,9.7-9.04,19.44-14.93,28.44c-0.75,1.15-0.89,2.28-0.59,3.63
			c0.51,2.26-1.67,6.78-3.64,7.9c-0.21,0.12-0.44,0.27-0.66,0.26c-2.28-0.08-3.39,1.49-4.47,3.12c-0.62,0.93-1.29,1.83-1.93,2.75
			c-12.43,17.99-27.15,33.73-45.42,45.96c-1.35,0.91-2.02,2-1.56,3.64c0.19,0.66,0.13,1.34-0.42,1.77c-2.15,1.69-4.42,3.54-7.3,3.09
			c-3.38-0.52-6.26,0.43-9.24,1.72c-15.06,6.47-30.67,9.26-47.03,6.77c-0.56-0.08-1.21-0.21-1.45,0.47
			c-0.26,0.75,0.4,0.93,0.93,1.11c0.38,0.13,0.76,0.31,1.15,0.32c3.59,0.13,7.16,0.71,10.77,0.45c4.78-0.34,9.57-0.57,14.35-0.89
			c3.03-0.2,6.14-0.11,9.05-0.8c10.07-2.38,19.74-5.87,28.8-10.99c14.58-8.24,27.03-19.04,38.08-31.5
			c13.77-15.53,24.77-32.96,34.41-51.27c10.05-19.09,17.99-39.05,24.43-59.62c5.13-16.4,9.79-32.93,13.17-49.8
			c2.78-13.87,5.58-27.73,7.27-41.8c0.88-7.3,1.81-14.59,2.59-21.9c0.52-4.93,0.69-9.89,1.13-14.82c0.88-9.88,1.72-19.75,1.66-29.68
			C597.22,558.99,597.18,553.71,596.97,548.44z M266.58,400.39c0.02-1.01-0.51-1.51-1.98-1.51c-4.16-0.01-8.32-0.06-12.47,0.12
			c-7.18,0.31-14.37,0.61-21.53,1.29c-4.53,0.43-9.08,0.65-13.61,1.14c-6.19,0.67-12.36,1.57-18.55,2.26
			c-2.52,0.28-4.6,1.17-6.18,3.19c-0.94,1.19-1.94,2.34-2.98,3.45c-16.74,18.03-31.86,37.32-45.65,57.68
			c-6.37,9.41-12.04,19.24-17.98,28.92c-2.44,3.98-4.04,8.34-6.13,12.47c-0.21,0.42-0.5,0.95-0.03,1.31c0.5,0.39,0.91-0.1,1.2-0.44
			c3.31-3.94,7.47-6.98,11.14-10.54c9.31-9.02,19.12-17.48,29.22-25.6c28.37-22.79,58.66-42.71,90.32-60.6
			c3.2-1.81,6.39-3.7,9.84-4.96C265.17,407.14,265.6,403.64,266.58,400.39z M326.27,833.04c-3.22-1.45-6.18-3.28-9.29-4.83
			c-17.14-8.51-33.49-18.32-49.13-29.35c-12.15-8.57-24-17.54-35.21-27.33c-4.88-4.26-9.83-8.43-14.31-13.12
			c-2.12-2.23-4.62-3.61-7.82-3.6c-1.17,0-2.37-0.35-3.52-0.68c-12.65-3.7-25.34-7.27-37.53-12.38c-0.54-0.23-1.09-0.65-1.76-0.28
			c0.13,0.89,0.75,1.45,1.2,2.08c9.62,13.49,20.08,26.26,31.64,38.16c10.38,10.68,21.22,20.81,32.98,29.95
			c2.48,1.93,5.14,3.5,8.11,4.55c13.64,4.83,27.4,9.15,41.68,11.76c7.3,1.34,14.56,2.86,21.97,3.55c2.7,0.25,5.42,0.13,8.11,0.69
			C317.62,833.09,321.95,832.62,326.27,833.04z M138.36,561.06c-0.86-0.02-1.75-0.15-2.15,0.76c-0.46,1.04,0.29,1.63,1.02,2.16
			c0.71,0.52,1.43,1.02,2.17,1.51c16.06,10.67,32.72,20.32,49.71,29.41c18.06,9.67,36.6,18.3,55.43,26.33
			c2.43,1.03,4.86,2.06,7.32,3.01c1.59,0.62,1.73,0.44,1.61-1.29c-0.5-7.82-1.88-15.55-2.32-23.38c-0.43-7.66-1.41-15.28-1.28-22.97
			c0.01-0.8-0.02-1.6-0.12-2.39c-0.12-0.97-0.66-1.59-1.68-1.75c-1.89-0.3-3.77-0.81-5.67-0.89c-5.83-0.26-11.64-0.6-17.42-1.42
			c-4.42-0.63-8.89-0.95-13.34-1.36c-4.14-0.38-8.27-0.83-12.42-1c-3.52-0.14-7.02-0.36-10.46-1.16c-0.62-0.14-1.26-0.24-1.89-0.3
			c-7.23-0.7-14.48-1.3-21.7-2.11c-2.94-0.33-5.91-0.05-8.82-0.8C150.43,561.92,144.26,562.28,138.36,561.06z M222.41,522.17
			c-13.15-0.3-27.37,0.42-41.59,0.55c-5.68,0.05-11.33,0.63-16.76,2.5c-4.3,1.49-8.61,2.98-12.89,4.54
			c-6.68,2.43-13.37,4.86-19.84,7.84c-3.04,1.4-3.49,2.46-2.83,5.68c0.32,1.54,1.12,2.39,2.7,2.56c1.11,0.12,2.21,0.36,3.31,0.5
			c6.1,0.77,12.2,1.55,18.3,2.28c7.37,0.88,14.77,1.53,22.18,2.08c3.58,0.27,7.17,0.52,10.71,1.21c1.8,0.35,3.62,0.61,5.46,0.71
			c3.03,0.16,6.05,0.42,9.07,0.73c4.93,0.49,9.84,1.1,14.77,1.56c7.24,0.67,14.48,1.27,21.72,1.86c3.02,0.25,6.06,0.45,9.09,0.56
			c3.42,0.12,3.58-0.08,3.6-3.4c0.03-5.52,0.05-11.03,0.06-16.55c0.01-4.32,0.03-8.63-0.02-12.95c-0.03-2.23-0.48-2.63-2.71-2.69
			c-1.28-0.03-2.56-0.08-3.84,0.01C236.44,522.22,229.96,521.99,222.41,522.17z M551.76,337.2c-0.29-2.92-1.46-3.8-3.9-3.75
			c-6.87,0.13-13.76-0.02-20.62,0.25c-5.1,0.2-10.21,0.49-15.29,1.16c-4.59,0.6-9.19,1.3-13.81,1.51
			c-9.21,0.42-18.27,2.06-27.32,3.41c-11.11,1.66-22.27,3.4-33.15,6.41c-0.61,0.17-1.24,0.29-1.87,0.4
			c-7.02,1.16-13.9,3.02-20.77,4.78c-7.88,2.02-15.71,4.32-23.53,6.61c-20.42,5.99-40.55,12.8-60.23,20.87
			c-17.23,7.07-34.29,14.51-51,22.78c-23.82,11.8-46.8,25.03-69.11,39.46c-22.93,14.83-44.6,31.35-65.23,49.24
			c-8.46,7.33-16.63,14.99-24.34,23.12c-1.66,1.75-1.79,3.1-0.68,5.2c1.02,1.94,1.82,2.05,3.44,0.49c0.29-0.28,0.56-0.57,0.84-0.86
			c9.35-9.78,19.46-18.74,29.65-27.61c8.51-7.4,17.42-14.31,26.47-21.03c7.38-5.48,14.64-11.14,22.29-16.24
			c26.77-17.85,54.48-34.07,83.46-48.1c16.77-8.12,33.75-15.75,51.16-22.4c17.55-6.71,35.28-12.88,53.26-18.32
			c12.24-3.7,24.52-7.26,36.97-10.15c15.72-3.65,31.56-6.69,47.52-9.14c6.08-0.93,12.16-1.78,18.27-2.51
			c4.92-0.59,9.87-0.83,14.78-1.47c8.25-1.07,16.53-1.7,24.85-1.73c5.12-0.01,10.23-0.02,15.35-0.07
			C551.22,339.48,551.8,338.9,551.76,337.2z M553.03,699.97c3.2,0,6.4,0,9.59,0c0.56,0,1.12,0.03,1.68-0.01
			c1.71-0.13,2.26-0.6,2.62-2.24c0.66-2.98,0.03-3.77-3.02-3.81c-3.92-0.05-7.84,0.14-11.75-0.19c-4.38-0.37-8.75-0.77-13.14-0.93
			c-6.15-0.22-12.28-0.91-18.42-1.05c-5.53-0.13-10.97-1.08-16.48-1.25c-3.03-0.09-6.05-0.46-9.04-1.03
			c-1.88-0.36-3.79-0.6-5.69-0.81c-5-0.54-10.04-0.82-15.01-1.57c-10.9-1.64-21.83-3.1-32.67-5.12
			c-20.59-3.83-41.11-7.9-61.44-12.96c-17.45-4.35-34.85-8.92-52.01-14.29c-27.24-8.52-54.13-18.06-80.42-29.24
			c-21.42-9.11-42.56-18.81-63.04-29.88c-16.04-8.67-31.8-17.84-46.87-28.14c-0.92-0.63-1.86-1.27-2.85-1.76
			c-1.22-0.61-1.95-0.3-2.54,0.88c-1.47,2.93-1.16,4.16,1.51,6.07c0.26,0.19,0.52,0.37,0.79,0.55c9.77,6.24,19.46,12.62,29.53,18.37
			c27.88,15.92,56.71,29.9,86.39,42.11c19.3,7.94,38.88,15.11,58.72,21.6c15.12,4.94,30.26,9.8,45.64,13.88
			c20.7,5.49,41.46,10.7,62.49,14.82c8.78,1.72,17.6,3.17,26.38,4.88c7.05,1.37,14.19,2.3,21.3,3.36c4.82,0.72,9.64,1.43,14.48,1.96
			c4.21,0.46,8.43,0.83,12.62,1.4c2.93,0.4,5.83,0.91,8.77,1.23c2.47,0.27,4.95,0.13,7.42,0.46c4.59,0.61,9.17,1.27,13.83,1.32
			c3.91,0.04,7.83,0.24,11.73,0.55C540.41,699.63,546.7,700.16,553.03,699.97z M570.12,452.13c0,0.06,0,0.11,0.01,0.17
			c3.2,0,6.4,0.01,9.6,0c3-0.02,3.69-0.85,3.21-3.79c-0.29-1.74-0.95-2.23-3.33-2.23c-8.72,0.02-17.43,0.08-26.15,0.13
			c-0.56,0-1.12,0.05-1.67,0.12c-4.37,0.52-8.74,0.94-13.15,0.84c-1.04-0.02-2.08,0.04-3.11,0.1c-7.9,0.42-15.8,0.82-23.7,1.3
			c-5.98,0.36-11.95,0.87-17.93,1.23c-5.9,0.35-11.77,1.05-17.65,1.65c-4.29,0.44-8.61,0.61-12.89,1.07
			c-7.7,0.83-15.38,1.99-23.09,2.63c-11.08,0.92-22.04,2.69-33.04,4.17c-13.14,1.77-26.25,3.74-39.31,6.07
			c-8.1,1.44-16.28,2.45-24.34,4.09c-11.74,2.39-23.58,4.24-35.28,6.88c-14.88,3.36-29.86,6.28-44.63,10.15
			c-8.81,2.31-17.72,4.19-26.49,6.68c-13.92,3.95-27.9,7.66-41.72,11.94c-12.83,3.97-25.57,8.21-38.27,12.57
			c-9.97,3.43-19.85,7.17-29.54,11.36c-2.69,1.16-3.4,2.87-2.41,5.55c0.45,1.22,0.94,1.54,2.19,1.2c1.23-0.34,2.46-0.73,3.63-1.25
			c10.84-4.78,22.09-8.46,33.23-12.43c22.97-8.19,46.36-15.09,69.86-21.57c22.34-6.16,44.92-11.38,67.57-16.3
			c11-2.39,22.05-4.59,33.11-6.71c10.12-1.94,20.27-3.72,30.43-5.44c8.82-1.49,17.67-2.8,26.48-4.31
			c8.58-1.47,17.22-2.56,25.85-3.72c3.09-0.42,6.15-1.02,9.24-1.38c7.69-0.91,15.42-1.54,23.09-2.63
			c10.69-1.51,21.46-2.07,32.19-3.15c6.44-0.65,12.86-1.41,19.33-1.7c5.82-0.26,11.63-0.93,17.45-1.14
			c6.47-0.23,12.93-0.56,19.39-0.93C548.87,452.76,559.5,452.52,570.12,452.13z M516.02,803.24c2.96,0,5.92,0,8.88,0
			c0.8,0,1.6-0.01,2.36-0.32c1.46-0.61,2.91-2.58,2.69-3.65c-0.23-1.18-1.25-1.65-3.57-1.67c-6.07-0.06-12.14,0.01-18.22-0.39
			c-8.93-0.59-17.86-1.01-26.69-2.53c-4.81-0.83-9.69-0.91-14.48-1.89c-7.28-1.48-14.66-2.46-21.92-4.02
			c-24.33-5.23-48.23-12.01-71.54-20.77c-34.59-13-67.71-29.03-99.21-48.4c-27.17-16.71-52.9-35.37-76.94-56.33
			c-13.5-11.78-26.39-24.2-38.67-37.27c-13.05-13.9-25.17-28.53-36.52-43.82c-0.48-0.64-0.94-1.3-1.49-1.87
			c-0.56-0.6-1.26-0.63-1.96-0.18c-1.71,1.1-2.37,3.85-1.19,5.46c3.75,5.09,7.39,10.25,11.37,15.16
			c4.83,5.96,9.98,11.66,14.94,17.52c7.54,8.92,15.55,17.44,23.82,25.65c8.55,8.5,17.41,16.71,26.64,24.52
			c10.32,8.73,20.56,17.55,31.44,25.58c17.64,13.01,35.73,25.34,54.69,36.38c16.6,9.66,33.61,18.52,51.03,26.59
			c15.02,6.95,30.44,12.95,45.96,18.71c14.49,5.38,29.34,9.47,44.22,13.52c5.79,1.57,11.71,2.58,17.5,4.05
			c8.07,2.05,16.27,3.42,24.43,4.89c9.26,1.67,18.61,2.93,28.03,3.61C499.75,802.34,507.86,803.18,516.02,803.24z M516.44,794.03
			c1.9,0,5.1,0,8.3,0c1.57,0,2.79-0.58,3.51-2.04c0.76-1.55,0.29-3.2-1.81-3.06c-0.8,0.05-1.6,0-2.4,0
			c-6,0.02-11.97-0.43-17.95-0.82c-5.74-0.37-11.44-1.15-17.17-1.64c-4.37-0.38-8.75-0.81-13.1-1.36c-2.85-0.36-5.65-1.05-8.5-1.46
			c-4.9-0.71-9.8-1.32-14.66-2.35c-10.16-2.16-20.32-4.34-30.35-7c-15.76-4.18-31.24-9.31-46.54-14.97
			c-30.9-11.43-60.45-25.7-88.78-42.49c-33.19-19.68-63.99-42.59-92.4-68.72c-17.98-16.54-34.7-34.25-50-53.3
			c-4.21-5.23-8.29-10.56-12.45-15.84c-0.63-0.8-1.23-1.83-2.49-1.51c-1.32,0.34-1.81,1.48-2.14,2.67c-0.27,0.99,0,1.93,0.5,2.76
			c0.53,0.89,1.14,1.74,1.78,2.55c7.53,9.54,14.98,19.13,23.01,28.27c18.3,20.82,38.05,40.16,59.38,57.85
			c20.02,16.61,41.24,31.59,63.36,45.28c22.26,13.78,45.35,25.99,69.32,36.51c14.94,6.55,30.21,12.27,45.61,17.62
			c11.56,4.01,23.39,7.12,35.23,10.13c13.62,3.47,27.34,6.56,41.29,8.46c4.59,0.62,9.09,1.8,13.73,2.14
			c3.74,0.27,7.48,0.59,11.22,0.95C499.67,793.37,507.38,794.12,516.44,794.03z M569.31,580.52c6.58,0,11.7,0,16.81,0
			c0.8,0,1.6-0.03,2.39-0.1c0.59-0.05,1.05-0.36,1.32-0.91c1.19-2.38-0.07-4.65-2.69-4.63c-7.84,0.06-15.66-0.16-23.49-0.35
			c-7.43-0.18-14.87-0.03-22.31-0.05c-5.92-0.02-11.84,0.2-17.74-0.24c-7.57-0.56-15.15-0.91-22.74-1.13
			c-8.07-0.24-16.14-0.16-24.21-0.43c-11.5-0.39-23.01-0.6-34.51-1c-8.14-0.28-16.29-0.77-24.45-0.63
			c-1.11,0.02-2.23-0.14-3.35-0.23c-5.73-0.5-11.42-1.39-17.2-1.17c-1.03,0.04-2.08-0.07-3.11-0.13c-3.91-0.25-7.81-0.71-11.71-0.73
			c-8.96-0.06-17.88-0.77-26.82-1.18c-9.33-0.43-18.68-0.75-27.97-1.82c-3.99-0.46-7.98-0.35-11.97-0.64
			c-6.13-0.45-12.27-0.88-18.41-1.17c-5.51-0.26-11.03-0.47-16.49-1.15c-10.24-1.26-20.57-1.28-30.82-2.28
			c-4.93-0.48-9.86-0.87-14.8-1.3c-3.58-0.31-7.13-0.98-10.73-1.06c-5.04-0.11-10.04-0.69-15.05-1.15
			c-7.08-0.65-14.14-1.5-21.21-2.16c-10.18-0.94-20.38-1.47-30.52-2.91c-8.61-1.22-17.3-1.95-25.95-2.91
			c-1.27-0.14-2.53-0.35-3.8-0.48c-0.66-0.07-1.27,0.07-1.68,0.68c-1.24,1.85-0.08,4.46,2.15,4.85c8.5,1.49,17.08,2.48,25.67,3.14
			c7.1,0.54,14.07,1.97,21.17,2.38c4.14,0.24,8.27,0.76,12.4,1.14c4.22,0.38,8.46,0.54,12.64,1.15c9.58,1.38,19.24,1.83,28.86,2.68
			c4.93,0.44,9.87,0.79,14.8,1.3c6.04,0.62,12.08,1.18,18.14,1.54c6.14,0.36,12.28,0.68,18.42,1.15c6.53,0.5,13.05,1.16,19.58,1.63
			c7.8,0.56,15.63,1.03,23.44,1.41c7.66,0.37,15.3,0.94,22.95,1.44c8.2,0.53,16.42,1.19,24.66,1.15c1.28-0.01,2.56,0.1,3.83,0.18
			c4.07,0.25,8.11,0.79,12.2,0.75c5.6-0.05,11.2,0.11,16.77,0.56c6.22,0.5,12.43,0.8,18.66,1.05c6.55,0.26,13.08,0.73,19.64,0.82
			c6.71,0.1,13.43,0.23,20.13,0.58c8.46,0.43,16.93,0.63,25.4,0.79c5.68,0.11,11.36,0,17.03,0.23c8.38,0.34,16.76,0.86,25.16,0.76
			c5.04-0.06,10.07,0.01,15.11,0C553.53,579.91,562.13,581.13,569.31,580.52z M496.4,252.61c-4.29,0.46-8.14,0.23-11.96,0.44
			c-4.94,0.27-9.89,0.6-14.82,1.09c-6.28,0.63-12.53,1.46-18.8,2.17c-7.63,0.86-15.2,2.18-22.66,3.89
			c-7.62,1.75-15.26,3.49-22.83,5.51c-8.51,2.27-16.94,4.76-25.19,7.75c-15.93,5.76-31.71,11.88-47.02,19.25
			c-23.91,11.51-46.73,24.86-68.39,40.12c-21.6,15.22-41.82,32.17-60.84,50.52c-18.1,17.46-34.63,36.34-49.93,56.29
			c-14.57,19.01-27.41,39.15-38.99,60.11c-0.58,1.05-1.17,2.1-1.64,3.2c-0.77,1.8-0.31,3.32,1.23,4.43c1,0.72,1.74,0.68,2.47-0.32
			c0.61-0.83,1.1-1.76,1.58-2.68c5.1-9.61,10.7-18.92,16.52-28.12c14.45-22.83,30.9-44.15,48.86-64.28
			c10.65-11.93,21.98-23.22,33.77-34.05c12.49-11.48,25.47-22.4,39.06-32.53c20.03-14.93,41.11-28.24,63.19-39.96
			c27.5-14.59,56.21-26.16,86.17-34.62c14.78-4.17,29.79-7.25,44.95-9.68c8.93-1.43,17.91-2.29,26.89-3.04
			c6.2-0.52,12.46-0.43,18.69-0.61c0.64-0.02,1.28,0.02,1.92-0.05c1.64-0.19,2.19-1.28,1.35-2.7
			C499.07,253.21,497.66,252.59,496.4,252.61z M459.27,863.47c3.31,0,5.94-0.01,8.58,0c0.89,0,1.76-0.09,2.55-0.54
			c0.63-0.36,1.35-0.75,1.26-1.59c-0.11-0.97-0.99-0.87-1.69-0.92c-6.85-0.46-13.7-1.02-20.56-1.35
			c-10.16-0.49-20.14-2.33-30.19-3.73c-8.95-1.24-17.68-3.64-26.43-5.82c-15.92-3.98-31.36-9.42-46.5-15.76
			c-33.18-13.89-63.73-32.19-91.99-54.39c-31.82-25-59.65-53.83-83.74-86.34c-16.38-22.1-30.51-45.55-42.85-70.1
			c-5.13-10.22-9.64-20.73-14.1-31.25c-0.97-2.28-1.49-2.49-3.57-1.55c-1.64,0.74-1.98,1.51-1.38,3.23c0.21,0.6,0.47,1.19,0.72,1.78
			c5.5,12.6,10.93,25.23,17.46,37.36c10.04,18.67,20.53,37.04,32.91,54.3c19.26,26.85,40.49,51.92,65.04,74.12
			c8.55,7.73,17.29,15.2,26.35,22.31c18.97,14.9,39.08,28.07,60.39,39.38c15.49,8.22,31.57,15.11,47.99,21.23
			c16.21,6.04,32.93,10.31,49.83,13.85c10.46,2.19,21.05,3.82,31.72,4.73C447.33,862.96,453.6,863.95,459.27,863.47z M244.15,294.52
			c2.05-0.58,4.14-0.53,6.18-0.81c3.57-0.49,7-1.71,10.56-2.15c8.47-1.05,16.86-2.72,25.45-3.01c8.3-0.28,16.55-1.6,24.88-1.3
			c1.42,0.05,2.33-0.5,3.14-1.71c5.46-8.19,11.25-16.14,17.65-23.62c7.39-8.65,15.17-16.9,24.46-23.59
			c0.39-0.28,0.76-0.59,1.06-0.96c0.39-0.49,0.24-0.93-0.38-1.05c-0.46-0.09-0.96-0.08-1.43-0.05c-4.55,0.35-9.04,1-13.38,2.52
			c-9.67,3.38-19.1,7.31-28.4,11.6c-21.81,10.06-42.11,22.58-61.3,36.96C249.69,289.56,246.79,291.81,244.15,294.52z M292.78,324.53
			c-0.73,0.04-1.15,0.41-1.61,0.69c-14.53,8.77-28.24,18.74-41.66,29.1c-11.52,8.9-22.38,18.6-33.04,28.51
			c-2.34,2.18-4.66,4.38-6.99,6.57c-0.28,0.27-0.66,0.55-0.5,1c0.18,0.49,0.63,0.4,1.01,0.27c2.84-0.94,5.81-1.01,8.75-1.31
			c10.58-1.09,21.18-1.69,31.81-1.89c5.43-0.1,10.86-0.39,16.3-0.03c2.67,0.18,3.22-0.36,3.96-2.81
			c3.6-11.94,7.28-23.86,11.81-35.49c2.9-7.44,5.54-15,9.31-22.08C292.32,326.32,292.73,325.54,292.78,324.53z M199.31,739.74
			c-0.95-1.06-1.88-2.14-2.84-3.18c-18.52-20.1-35.23-41.6-49.97-64.62c-6.94-10.85-13.54-21.89-19.31-33.41
			c-0.41-0.83-0.96-1.45-1.82-1.81c-2.29-0.98-4.72-1.5-7.13-2.05c-0.97-0.22-1.36,0.3-1.16,1.22c0.22,1.01,0.49,2.02,0.79,3.02
			c6.91,23.05,16.16,45.14,27.48,66.37c2.86,5.36,5.77,10.69,8.88,15.92c1.23,2.06,2.79,3.64,5.1,4.5c1.72,0.64,3.41,1.4,5.04,2.24
			c9.2,4.78,19.02,7.91,28.85,11.03C195.1,739.56,197.04,739.98,199.31,739.74z M425.57,217.5c-10.97-0.57-22.63,1.62-34.34,3.12
			c-9.44,1.22-18.71,3.41-27.93,5.73c-26.35,6.64-51.35,16.76-75.08,29.94c-32.26,17.92-60.8,40.63-86.19,67.41
			c-20.57,21.69-38.34,45.48-53.65,71.08c-18.01,30.12-31.9,62.12-42.23,95.66c-0.82,2.67-1.68,5.34-2.44,8.03
			c-0.49,1.74,0.37,2.76,2.16,2.8c1.15,0.02,2.04-0.43,2.57-1.44c0.33-0.63,0.57-1.32,0.76-2.01c2.21-8.27,5-16.35,7.83-24.43
			c6.91-19.74,15.29-38.81,24.92-57.37c7.49-14.43,15.88-28.34,25.07-41.72c14.74-21.47,31.27-41.5,50.02-59.63
			c10.76-10.41,21.9-20.35,33.92-29.29c12.85-9.55,26.16-18.36,40.1-26.27c13.03-7.4,26.57-13.73,40.46-19.27
			c13.22-5.28,26.92-9.21,40.74-12.59c8.45-2.07,17.05-3.52,25.66-4.83c6.72-1.02,13.45-1.88,20.23-2.34
			c5.58-0.38,11.17-0.63,16.75-0.97c0.66-0.04,1.7,0.21,1.71-0.79c0-0.96-1.01-0.82-1.69-0.82
			C432.09,217.49,429.29,217.5,425.57,217.5z M133.48,575.67c1.03,2.12,2.45,3.94,3.85,5.77c10.13,13.2,20.84,25.91,32.18,38.09
			c4.36,4.68,8.77,9.3,13.35,13.78c1.22,1.19,2.5,1.82,4.23,1.85c1.99,0.03,3.99,0.27,5.96,0.55c8.48,1.21,17,1.71,25.55,1.82
			c1.36,0.02,2.72,0.04,4.07,0.16c9.81,0.88,19.63,0.94,29.45,0.47c0.3-0.01,0.67,0.01,0.73-0.83
			C211.4,620.19,171.19,600.38,133.48,575.67z M203.21,318.21c-0.16-0.04-0.33-0.13-0.46-0.09c-0.84,0.27-1.68,0.52-2.49,0.85
			c-13.6,5.56-26.31,12.75-38.37,21.11c-3.11,2.16-5.83,4.76-7.86,7.98c-7.47,11.83-14.81,23.73-20.97,36.33
			c-3.3,6.76-6.13,13.72-9.08,20.63c-1.07,2.5-2.3,4.93-2.95,7.59c-0.11,0.47-0.28,0.92-0.33,1.4c-0.06,0.59,0.26,0.94,0.86,0.75
			c0.53-0.17,1.02-0.46,1.52-0.71c3.77-1.94,7.61-3.74,11.61-5.15c2.42-0.86,3.99-2.35,5.24-4.57
			c17.25-30.75,37.75-59.13,62.18-84.61C202.54,319.26,203.13,318.92,203.21,318.21z M321.6,819.49c0.11-0.13,0.23-0.25,0.34-0.38
			c-0.94-1.38-1.83-2.79-2.83-4.12c-2.17-2.88-4.14-5.88-6.07-8.91c-7.84-12.28-14.53-25.19-20.7-38.37
			c-0.44-0.94-0.9-1.87-1.37-2.8c-0.47-0.93-1.22-1.47-2.29-1.48c-3.44-0.02-6.83-0.73-10.26-0.83c-8.94-0.26-17.88-0.46-26.78-1.52
			c-4.99-0.59-10.03-0.74-14.97-1.79c-0.56-0.12-1.25-0.4-1.83,0.49C261.14,783.54,290.17,803.26,321.6,819.49z M268.13,701.96
			c0.64-1.15,0.18-1.82,0-2.48c-4.17-15.36-7.54-30.9-10.07-46.61c-0.43-2.64-0.88-3-3.64-3.02c-4.32-0.03-8.63-0.03-12.95-0.04
			c-8.63-0.02-17.25-0.41-25.87-0.87c-4.78-0.25-9.56-0.84-14.36-0.58c-0.58,0.03-1.28-0.25-1.82,0.63
			C220.92,668.4,243.73,686.07,268.13,701.96z M120.66,545.88c0.01-3.88-0.64-10.45-2.49-16.87c-0.63-2.18-1.44-2.57-3.72-2.4
			c-7.57,0.56-15.01,2.13-22.57,2.81c-2.55,0.23-4.21,1.75-4.93,4.25c-0.38,1.33-0.36,2.69-0.37,4.04
			c-0.04,3.67,0.24,7.38-0.55,10.99c-0.52,2.38-0.2,4.6,0.54,6.82c0.63,1.91,1.01,3.85,1.09,5.87c0.08,2.09,0.58,4.1,1.49,6.01
			c1.37,2.88,2.78,5.76,3.64,8.86c0.18,0.64,0.46,1.25,1.03,1.57c1.79,1.01,2.99,2.61,4.35,4.07c2.74,2.94,6.49,3.22,9.67,0.79
			c1.92-1.46,3.57-3.2,4.91-5.22c2.09-3.15,3.63-6.56,4.76-10.17C119.41,561.24,120.17,554.99,120.66,545.88z M401.59,876.07
			c0.72,0,1.44,0.03,2.16-0.01c0.46-0.02,1.07-0.02,1.03-0.68c-0.02-0.5-0.56-0.49-0.94-0.53c-1.59-0.15-3.18-0.41-4.78-0.4
			c-7.76,0.03-15.48-0.54-23.18-1.52c-5.62-0.71-11.3-1.15-16.87-2.15c-13.22-2.38-26.23-5.68-38.98-9.93
			c-29.11-9.7-56.05-23.59-80.86-41.72c-20.26-14.8-38.39-31.83-54.59-50.91c-17.04-20.07-31.44-41.94-43.53-65.32
			c-6.87-13.29-12.87-26.97-18.14-40.98c-5.72-15.21-10.61-30.66-14.32-46.48c-1.59-6.77-3.05-13.57-4.6-20.34
			c-0.42-1.82-1.01-2.12-2.97-1.79c-1.45,0.24-1.63,0.48-1.49,2.39c0.05,0.79,0.21,1.58,0.37,2.36c1.98,9.63,4.08,19.23,6.91,28.66
			c0.74,2.45,0.94,5.02,1.88,7.43c0.84,2.16,1.61,4.35,2.25,6.58c2.55,8.85,5.76,17.46,9.03,26.05
			c8.38,22.05,19.14,42.92,31.64,62.88c12.34,19.71,26.53,38.03,42.72,54.73c25.09,25.9,53.64,47.11,86.09,62.97
			c2.02,0.99,4.07,1.83,6.28,2.32c2.04,0.45,3.97,1.18,5.81,2.19c1.26,0.69,2.58,1.28,3.9,1.84c14.82,6.26,30.19,10.9,45.66,15.21
			c0.23,0.06,0.46,0.15,0.69,0.19c6.4,0.97,12.7,2.46,19.09,3.5c5.83,0.95,11.7,1.65,17.57,2.35c3.01,0.36,6,0.9,9.04,1.02
			C392.82,876.14,397.22,875.19,401.59,876.07z M307.9,243.2c-16.75,3.5-32.9,8.73-48.48,15.71c-15.6,6.98-30.29,15.52-44.05,25.66
			c-13.08,9.64-34.53,29.45-37.26,34.45c3.03-1.18,5.73-2.92,8.58-4.35c10.38-5.21,21.1-9.58,32.18-13.04
			c1.69-0.53,3.32-1.13,4.62-2.41c5.31-5.23,11.25-9.7,17.1-14.29c15-11.77,30.67-22.52,47.54-31.44
			C294.7,250,301.31,246.62,307.9,243.2z M267.24,833.78c-0.07,0.16-0.15,0.32-0.22,0.47c2.31,1.23,4.64,2.42,6.91,3.7
			c15.07,8.54,31.02,15.09,47.4,20.61c12.28,4.14,24.88,7,37.63,9.31c4.48,0.81,9.05,0.9,13.51,1.85c1.72,0.37,3.55,0.41,5.61-0.09
			c-0.85-1-1.67-1.32-2.45-1.67c-4.02-1.81-7.72-4.17-11.35-6.66c-6.87-4.71-13.31-9.95-19.31-15.72c-1.8-1.73-3.74-2.48-6.23-2.43
			c-4.31,0.08-8.63,0.08-12.94-0.19c-5.82-0.36-11.61-1-17.4-1.66c-8.26-0.93-16.47-2.12-24.62-3.72
			C278.23,836.5,272.7,835.28,267.24,833.78z M331.78,232.86c-4.58,0.64-9.18,1.15-13.73,1.97c-3.14,0.56-6.18,1.59-9.29,2.34
			c-15.72,3.78-31.07,8.64-45.94,15.07c-22.94,9.92-43.69,23.29-62.95,39.08c-5.13,4.21-10.03,8.69-15.14,12.92
			c-4.94,4.09-9.5,8.56-13.79,13.31c-18.44,20.46-33.43,43.25-45.42,67.98c-12.27,25.31-20.74,51.92-25.97,79.56
			c-1.07,5.65-2.56,11.23-3.13,16.97c-0.58,5.72-1.05,11.46-2.12,17.13c-0.09,0.46-0.05,0.96-0.01,1.43c0.04,0.43,0.32,0.72,0.7,0.9
			c1.47,0.68,3.56-0.38,3.84-2.03c0.35-2.05,0.77-4.1,0.87-6.17c0.39-8.09,1.92-16.04,3.28-23.97c2.52-14.73,6.2-29.21,10.81-43.46
			c3.47-10.74,7.27-21.33,11.83-31.65c16.02-36.34,38.35-68.22,67.66-95.05c23.54-21.55,50.34-37.98,80.09-49.57
			c4.17-1.62,8.37-3.17,12.56-4.75c0.97-0.37,1.97-0.84,3.02-0.59c2.23,0.54,4.28-0.09,6.32-0.81c4.61-1.63,9.31-2.94,14.12-3.74
			C317.13,238.41,324.65,236.36,331.78,232.86z M112.27,498.47c3.84-6.8,7.58-13.19,11.48-19.49c3.87-6.25,7.84-12.43,11.98-18.51
			c4.18-6.14,8.48-12.2,12.93-18.16c4.39-5.89,8.88-11.72,13.58-17.37c4.7-5.66,9.47-11.27,14.56-17.32
			c-2.43,0.67-4.24,1.28-6.1,1.66c-7.84,1.61-15.42,4.11-23.01,6.59c-2.1,0.69-3.54,1.84-4.61,3.82
			c-4.52,8.37-8.4,17.06-12.25,25.74c-7.33,16.52-13.27,33.57-18.56,50.84C112.09,496.8,111.83,497.31,112.27,498.47z
			 M221.83,813.54c-0.57-0.63-0.8-0.91-1.06-1.16c-6.85-6.68-15.54-10.61-23.47-15.67c-0.27-0.17-0.57-0.31-0.88-0.38
			c-2.34-0.51-4.2-1.88-6.03-3.33c-1.57-1.24-3.17-2.43-4.78-3.61c-17.31-12.7-31.8-28.16-44.49-45.37
			c-11.88-16.12-21.13-33.69-28.47-52.29c-7.58-19.21-12.27-39.18-15.28-59.54c-1.59-10.74-2.84-21.56-2.46-32.47
			c0.07-2.16,0-4.32-0.01-6.48c-0.01-3.01-0.02-3.01-2.81-3.78c-1.42-0.39-1.67-0.23-1.81,1.26c-0.05,0.48-0.04,0.96-0.03,1.44
			c0.12,5.03,0.07,10.07,0.46,15.1c1.05,13.71,2.53,27.38,5.28,40.86c4.12,20.22,10.82,39.6,19.6,58.27
			c2.9,6.16,6.44,11.96,9.75,17.89c1.46,2.6,3.06,5.04,5.2,7.13c1.44,1.4,2.58,3.04,3.5,4.84c0.47,0.92,0.95,1.87,1.59,2.68
			c4.59,5.85,8.76,12.01,13.55,17.71c19.34,22.99,42.31,41.44,68.92,55.36C219.15,812.52,220.15,813.17,221.83,813.54z
			 M138.38,713.38c0.1-1.21-0.47-1.83-0.83-2.52c-0.82-1.55-1.71-3.07-2.55-4.61c-7.27-13.28-13.11-27.2-18.5-41.32
			c-4.04-10.6-7.78-21.32-10.83-32.26c-0.78-2.81-2.35-3.96-5.79-4.26c-0.3,0.35-0.16,0.75-0.13,1.14c0.39,4.94,1.26,9.8,2.17,14.68
			c2.87,15.36,7.25,30.29,12.54,44.97c1.92,5.32,4.72,9.92,9.34,13.33c2.05,1.52,3.94,3.26,5.94,4.86
			C132.42,709.53,135.14,711.61,138.38,713.38z M201.53,796.15c0.15-0.16,0.3-0.31,0.45-0.47c-0.74-0.7-1.48-1.41-2.22-2.11
			c-6.6-6.29-12.79-12.98-18.8-19.83c-10.51-11.97-19.98-24.74-28.56-38.16c-1.17-1.84-2.57-3.5-4.55-4.51
			c-5.92-3.03-11.39-6.79-16.8-10.62c-0.41-0.29-0.77-0.9-1.66-0.35C146.72,751.88,170.73,777.24,201.53,796.15z M364.54,848.77
			c0.69,0.55,0.96,0.72,1.19,0.94c4.48,4.18,9.78,7.17,15.03,10.22c8.33,4.84,17.09,8.66,26.61,10.52c3.04,0.59,6.22,0.57,9.07,2.02
			c0.2,0.1,0.47,0.09,0.71,0.09c5.9-0.02,11.81,0.67,17.69-0.42c5.9-1.09,11.72-2.45,17.37-4.47c0.66-0.23,1.53-0.32,1.9-1.29
			c-4.78-0.57-9.36-1.14-13.96-1.65c-4.84-0.54-9.71-0.85-14.52-1.57c-19.54-2.94-38.73-7.38-57.51-13.55
			C367.17,849.29,366.23,848.82,364.54,848.77z M145.51,345.01c-1.59,1.67-3.11,3.41-4.78,4.99
			c-16.58,15.63-29.02,34.16-38.46,54.81c-1.03,2.25-2.16,4.46-3.37,6.62c-1.9,3.36-3.39,6.88-4.58,10.53
			c-6.34,19.44-9.64,39.4-10.06,59.83c-0.19,9.12,0.88,18.19,1.5,27.27c0.01,0.2,0.23,0.39,0.34,0.55c0.14-0.01,0.24,0.02,0.3-0.02
			c0.27-0.17,0.5-0.43,0.79-0.53c2.22-0.78,2.64-2.43,2.47-4.57c-0.33-4.06-0.5-8.13-0.77-12.2c-0.33-5.1-0.98-10.19-0.56-15.32
			c0.25-3.11,0.78-6.21,0.75-9.31c-0.08-9.03,1.7-17.83,3.36-26.6c2.29-12.11,6.11-23.83,10.98-35.18
			c6.19-14.43,14.53-27.54,24.31-39.77c1.86-2.32,3.72-4.64,6.17-6.33C139.27,356.09,142.69,350.85,145.51,345.01z M584.28,583.59
			c-0.65-0.83-1.51-0.58-2.25-0.58c-14.71-0.13-29.41-0.24-44.12-0.37c-4.24-0.04-8.48,0-12.71-0.18
			c-10.78-0.46-21.56-0.86-32.35-0.82c-4.24,0.02-8.47-0.05-12.71-0.19c-8.7-0.31-17.37-1.33-26.09-1.22
			c-1.76,0.02-3.52,0.03-5.27-0.11c-7.65-0.6-15.31-0.87-22.99-0.88c-2,0-4,0.01-5.99-0.14c-7.01-0.53-14.03-0.88-21.07-0.93
			c-4.15-0.03-8.32-0.11-12.45-0.5c-10.34-0.98-20.72-1.39-31.09-1.8c-1.28-0.05-2.56-0.1-3.83-0.16
			c-6.14-0.32-12.27-0.95-18.43-0.88c-1.67,0.02-3.35-0.13-5.03-0.21c-4.79-0.22-9.52-1.08-14.32-1.27
			c-2.62-0.1-5.26-0.29-7.89-0.48c-6.21-0.46-12.42-0.95-18.64-1.26c-7.34-0.37-14.69-0.71-21.98-1.63
			c-9.21-1.16-18.48-1.32-27.7-2.22c-4.69-0.46-9.42-0.55-14.09-1.16c-8.01-1.05-16.06-1.47-24.09-2.22
			c-5.49-0.51-10.98-1.01-16.45-1.64c-6.03-0.69-12.08-1.17-18.12-1.74c-5.4-0.51-10.84-0.65-16.18-1.8
			c-2.88-0.62-5.82-0.71-9.11-0.54c2.44,0.76,4.63,0.58,6.77,0.87c3.72,0.5,7.46,0.8,11.19,1.22c3.81,0.43,7.64,0.6,11.43,1.22
			c6.47,1.05,12.99,1.61,19.52,2.13c5.57,0.44,11.16,0.85,16.69,1.62c7.92,1.1,15.9,1.45,23.85,2.18c6.2,0.57,12.43,0.88,18.62,1.61
			c9.92,1.18,19.91,1.4,29.86,2.25c5.09,0.43,10.21,0.64,15.29,1.13c6.28,0.61,12.56,1.17,18.88,1.28c1.44,0.03,2.88,0.1,4.31,0.21
			c3.74,0.3,7.46,0.8,11.23,0.8c2.16,0,4.31,0.22,6.47,0.26c4.08,0.07,8.11,0.85,12.17,1.05c13.17,0.64,26.34,1.11,39.5,1.89
			c9.08,0.54,18.19,0.52,27.27,1.4c8.58,0.83,17.23,0.82,25.86,1.13c12.3,0.43,24.59,0.89,36.89,1.27
			c15.09,0.47,30.2,0.27,45.3,1.01c6.78,0.34,13.59,0.07,20.38,0.14c7.67,0.07,15.34-0.22,23.01,0.34
			c5.97,0.44,11.96,0.76,17.96,0.51C582.6,584.16,583.54,584.48,584.28,583.59z M306.21,316.45c-0.28-0.02-0.47-0.09-0.58-0.03
			c-2.08,1.2-4.13,2.44-6.22,3.61c-1.31,0.73-2.26,1.75-2.88,3.1c-1.04,2.25-2.14,4.47-3.13,6.74
			c-7.76,17.73-14.33,35.91-19.85,54.46c-0.2,0.69-0.42,1.38-0.55,2.08c-0.26,1.4,0.08,1.93,1.39,2.31c2.72,0.8,4.42-0.1,5.26-2.81
			c0.14-0.46,0.29-0.92,0.42-1.37c3.81-12.79,8.05-25.42,12.98-37.84c3.75-9.44,7.88-18.7,12.22-27.87
			C305.63,318.08,306.2,317.37,306.21,316.45z M338.7,827.58c-0.47-1.37-1.16-1.94-1.7-2.62c-6.97-8.77-13.62-17.77-19.3-27.44
			c-6.32-10.76-12.08-21.82-17.42-33.09c-0.44-0.94-0.81-1.92-1.51-2.72c-0.98-1.13-3.91-1.44-5.11-0.57
			c-0.91,0.66-0.89,1.36,0.09,3.45c0.14,0.29,0.28,0.57,0.42,0.86c3.69,7.89,7.67,15.64,11.79,23.32
			c5.83,10.88,12.45,21.23,19.86,31.09c1.06,1.41,2.2,2.81,3.8,3.6C332.48,824.85,335.4,826.1,338.7,827.58z M255.1,484.3
			c-0.06,1.16,0.42,1.64,1.55,1.47c0.7-0.11,1.38-0.38,2.06-0.61c2.24-0.74,2.5-1.08,2.66-3.37c0.11-1.51,0.14-3.04,0.35-4.54
			c0.98-7.2,2.17-14.37,2.99-21.58c0.8-7.08,2.26-14.03,3.44-21.04c0.93-5.51,2.33-10.93,3.52-16.4c0.12-0.53,0.46-1.12-0.06-1.57
			c-0.52-0.46-1.07-0.06-1.55,0.17c-5.62,2.77-4.85,2.07-6.25,7.28c-0.1,0.39-0.18,0.78-0.26,1.17c-1.3,6.18-1.9,12.48-3.3,18.64
			c-1.61,7.1-2.14,14.38-3.32,21.55C255.89,471.71,255.4,477.99,255.1,484.3z M129.65,423.73c-1.32-0.27-2.14,0.27-2.96,0.69
			c-2.34,1.21-4.6,2.61-6.99,3.69c-3.41,1.54-5.42,4.06-6.26,7.66c-0.86,3.65-1.8,7.29-2.76,10.92c-3.07,11.6-5.14,23.4-7.07,35.23
			c-0.46,2.84-0.53,5.74-0.77,8.62c4.11-11.34,7.96-22.67,12.31-33.84C119.47,445.55,124.6,434.75,129.65,423.73z M198.09,400.75
			c0.68,0.45,1,0.33,1.3,0.26c7.5-1.64,15.18-1.92,22.75-3.02c3.02-0.44,6.06-0.27,9.08-0.53c8.19-0.7,16.36-1.63,24.6-1.31
			c2.39,0.09,4.79-0.05,7.18,0c1.56,0.04,2.61-0.54,3.15-2.02c0.22-0.6,0.48-1.19,0.66-1.8c0.6-2.04,0.19-2.55-1.98-2.61
			c-11.75-0.32-23.43,0.68-35.12,1.63c-1.83,0.15-3.66,0.27-5.49,0.44c-5.24,0.47-10.47,1.15-15.73,1.33
			c-1.31,0.05-2.56,0.26-3.61,1.07C202.42,396.1,200.4,398.45,198.09,400.75z M242.75,647.34c1.98,0,3.41-0.02,4.85,0.01
			c1.68,0.04,3.35,0.2,5.03,0.16c1.48-0.04,2.08-0.69,1.94-2.13c-0.39-3.98-0.77-4.27-4.23-4.22c-0.4,0.01-0.8,0-1.2,0
			c-4.39-0.05-8.82,0.24-13.18-0.22c-9.15-0.97-18.35-0.73-27.5-1.58c-4.92-0.45-9.89-0.26-14.8-1.04
			c-1.17-0.19-2.39-0.13-3.59-0.15c-0.39-0.01-0.85,0.01-1.07,0.39c-0.3,0.54,0.16,0.9,0.47,1.23c1.51,1.66,3.15,3.17,4.97,4.5
			c0.72,0.52,1.55,0.81,2.45,0.89c2.15,0.19,4.28,0.47,6.44,0.53c4.31,0.11,8.62,0.31,12.93,0.58
			C225.26,646.84,234.24,647.87,242.75,647.34z M231.5,304.95c0.35,0.45,0.58,0.39,0.82,0.33c4.83-1.08,9.66-2.17,14.49-3.23
			c6.4-1.41,12.91-2.16,19.36-3.27c8.05-1.39,16.18-1.8,24.29-2.49c4.63-0.39,9.26-0.42,13.89-0.34c1.61,0.03,2.76-0.56,3.56-1.95
			c0.75-1.3,1.55-2.57,2.88-3.48c-1.37-0.17-2.64-0.16-3.9-0.17c-6.88-0.1-13.72,0.65-20.57,0.91c-9.14,0.35-18.08,2.05-27.09,3.24
			c-5.62,0.75-11.1,2.34-16.7,3.19C237.62,298.44,234.85,302.06,231.5,304.95z M369.31,237.34c-1.25-0.15-2.37-0.16-3.43-0.45
			c-1.87-0.51-3.43-0.07-4.94,1.06c-3.19,2.41-6.32,4.89-9.3,7.55c-8.67,7.74-16.38,16.36-23.7,25.37
			c-4.3,5.29-7.91,11.04-11.77,16.62c-1.29,1.87-0.68,2.84,1.64,3.07c2.32,0.23,3.96-0.56,5.2-2.59
			c3.46-5.67,7.47-10.97,11.55-16.19c9.75-12.45,20.55-23.85,33.54-33.01C368.55,238.47,369.11,238.25,369.31,237.34z
			 M341.93,840.18c-2.65-0.61-4.51-2-6.55-3.01c-1.59-0.78-3.29-1.17-5.08-1.23c-4.23-0.14-8.49-0.1-12.69-0.6
			c-7.53-0.9-15.09-1.52-22.6-2.72c-10.58-1.7-21.09-3.63-31.4-6.6c-4.53-1.3-9.08-2.52-13.51-4.16c-0.81-0.3-1.67-0.83-3.06-0.38
			c3.99,2.68,7.34,5.6,11.7,7.03c10.81,3.56,21.87,6.03,33.03,8.09c7.78,1.43,15.65,2.19,23.52,3.03
			c7.88,0.85,15.75,1.44,23.68,1.27C339.8,840.88,340.71,841.17,341.93,840.18z M82.72,546.69c1.01-8.33,1.89-16.91,5-25.06
			c0.6-1.56,1.35-3.08,2.16-4.54c2.22-3.96,5.17-7.28,8.97-9.82c1.53-1.02,3.09-1.66,4.95-0.98c0.36,0.13,0.79,0.13,1.17,0.09
			c0.32-0.03,0.58-0.29,0.63-0.63c0.05-0.35-0.15-0.63-0.46-0.76c-0.29-0.12-0.61-0.19-0.93-0.21c-3.6-0.25-7,0.18-9.98,2.5
			c-2.12,1.64-3.83,3.62-5.28,5.84c-2.55,3.91-4.49,8.1-5.78,12.59c-1.8,6.26-2.39,12.71-2.85,19.17c-0.42,5.8,1.02,11.43,1.8,17.12
			c0.8,5.86,2.84,11.29,5.67,16.45c1.47,2.68,3.21,5.16,5.6,7.11c4.82,3.94,11.37,4.58,16.86,1.67c1.77-0.94,3.07-2.15,3.61-4.2
			c0.66-2.47,2.04-4.51,4.44-5.68c0.94-0.46,1.37-1.28,1.78-2.17c1.86-4.01,3.27-8.15,4.13-12.49c0.25-1.25,0.57-2.49,0.54-3.79
			c-0.03-0.98-0.22-1.91-0.88-2.68c-0.21-0.25-0.45-0.49-0.8-0.44c-0.38,0.06-0.47,0.39-0.53,0.71c-0.17,1.02-0.33,2.05-0.49,3.08
			c-0.98,6.31-3,12.24-6.17,17.79c-2.37,4.15-5.63,7.3-9.95,9.4c-2.45,1.19-4.66,1.16-7-0.35c-3.91-2.53-6.97-5.75-9.27-9.83
			C84.47,567.37,83.87,557.13,82.72,546.69z M263.47,648.82c-0.32,0-0.64-0.02-0.96,0c-1.91,0.12-2.3,0.55-1.85,2.37
			c0.66,2.65,0.78,5.37,1.29,8.04c1.91,10.12,4.02,20.21,6.42,30.23c1.1,4.59,2.71,9.03,3.63,13.65c0.18,0.89,0.65,1.64,1.43,2.14
			c1.54,1,3.09,1.99,4.64,2.97c0.4,0.25,0.85,0.57,1.3,0.14c0.32-0.31,0.21-0.74,0.12-1.13c-0.13-0.62-0.27-1.25-0.43-1.87
			c-1.95-7.66-4.3-15.22-5.92-22.97c-2.13-10.15-5.02-20.16-6.04-30.53C266.85,649.38,266.1,648.83,263.47,648.82z M224.06,748.75
			c1.31,2.44,3.36,3.98,5.11,5.8c1.16,1.21,2.58,1.78,4.25,1.95c3.34,0.36,6.66,0.84,9.99,1.23c5.4,0.62,10.79,1.22,16.2,1.73
			c4.14,0.39,8.3,0.45,12.44,0.73c4.46,0.29,8.95,0.14,13.43,0.12c1.48-0.01,1.64-0.35,1.07-1.78c-0.33-0.82-0.75-1.6-1.05-2.42
			c-0.59-1.6-1.81-2.23-3.39-2.09c-4.32,0.4-8.62-0.21-12.94-0.09c-3.35,0.09-6.71,0.03-10.05-0.46c-2.61-0.38-5.23-0.67-7.85-0.98
			c-6.19-0.74-12.4-1.27-18.55-2.25C229.84,749.77,226.95,749.24,224.06,748.75z M98.9,428.74c0.76,0.23,1.18-0.37,1.67-0.72
			c1.43-1.02,2.77-2.18,4.26-3.1c2.09-1.29,3.25-3.07,4.02-5.41c5.43-16.43,12.27-32.25,20.67-47.39c0.76-1.37,1.41-2.8,2.29-4.56
			c-5.52,3.72-17.41,21.2-23.8,34.65C103.49,411.74,98.64,425.85,98.9,428.74z M82.39,577.63c-0.33,3.48-1.58,6.29-2.1,9.28
			c-1.38,7.9-1.88,15.87-1.97,23.87c-0.16,14.02,1.33,27.77,6.82,40.86c0.34,0.81,0.62,1.65,0.85,2.5c1.29,4.88,3.15,9.56,5.1,14.21
			c3.62,8.63,8.7,16.35,14.37,23.73c0.13,0.17,0.35,0.28,0.51,0.39c0.33-0.2,0.22-0.45,0.17-0.66c-0.78-3.3-2.35-6.28-3.9-9.26
			c-0.23-0.43-0.55-0.83-1.01-0.99c-1.89-0.68-2.83-2.3-3.77-3.87c-0.78-1.3-1.34-2.72-2.04-4.07
			c-7.36-14.24-11.79-29.36-13.02-45.33c-0.92-11.83-0.63-23.64,1.83-35.33c0.71-3.36,1.36-6.74,1.68-10.17
			c0.1-1.04,0.13-2.1-0.79-2.88C84.34,579.26,83.55,578.6,82.39,577.63z M254.01,600.28c0.02,2.15-0.11,4.31,0.37,6.45
			c0.69,3.05,1.02,6.14,1.13,9.26c0.07,2.07,0.32,4.15,0.67,6.19c0.79,4.62,1.05,4.85,5.49,6.07c1.37,0.38,1.85,0.05,1.64-1.32
			c-0.2-1.34-0.66-2.64-0.86-3.98c-1.62-11-2.07-22.11-3-33.17c-0.42-4.93-0.08-9.91-1.19-14.79c-0.44-1.95-0.67-2.31-2.59-2.42
			c-0.48-0.03-0.96-0.04-1.44-0.02c-1.62,0.08-2.01,0.39-2.09,1.95c-0.08,1.51-0.1,3.03,0.22,4.54c0.33,1.56,0.72,3.12,0.65,4.74
			c-0.16,3.29,0.24,6.55,0.64,9.8C253.92,595.82,254.04,598.04,254.01,600.28z M117.32,589.98c-0.65,2.46-0.06,4.52,0.89,6.47
			c4.39,9.06,8.23,18.38,12.9,27.31c1.08,2.06,2.42,3.2,4.66,3.58c4.1,0.68,8.18,1.44,12.16,2.65c0.3,0.09,0.62,0.19,0.93,0.21
			c0.46,0.04,1.01,0.17,1.25-0.41c0.17-0.43-0.15-0.75-0.42-1.04c-1.09-1.17-2.21-2.31-3.29-3.49
			c-9.68-10.55-18.71-21.64-27.34-33.07C118.49,591.45,117.9,590.72,117.32,589.98z M180.3,519.97c0.95,0,1.9,0.01,2.85,0
			c8.95-0.08,17.88-0.66,26.82-0.82c10.86-0.19,21.73-0.07,32.6-0.09c1.04,0,2.08-0.04,3.11-0.09c0.68-0.03,1.22-0.33,1.56-0.95
			c1.14-2.08,0.05-4.03-2.33-4.17c-0.32-0.02-0.64-0.02-0.96-0.02c-13.74,0.05-27.48,0.11-41.23,0.15c-2.65,0.01-5.26,0.36-7.84,0.9
			C189.87,515.94,185.27,518.29,180.3,519.97z M210.33,751.42c-1.96-2.59-4.28-4.74-6.78-6.7c-0.48-0.38-1.14-0.65-1.75-0.74
			c-4.3-0.66-8.24-2.51-12.39-3.66c-4.7-1.3-9.27-2.98-13.8-4.8c-4.37-1.76-8.81-3.35-13.07-5.39c-0.82-0.39-1.68-0.91-3.02-0.61
			c0.67,1.11,1.23,2.04,1.79,2.98c1.91,3.23,4.6,5.46,8.22,6.57c1.98,0.61,3.94,1.33,5.86,2.1c7.8,3.12,15.79,5.66,23.87,7.92
			C202.86,750.11,206.47,751.07,210.33,751.42z M209.55,510.35c0.01,0.15,0.01,0.3,0.02,0.45c0.79,0,1.59,0,2.38,0
			c11.1,0,22.19,0,33.29,0c0.72,0,1.44,0.02,2.16-0.01c1.98-0.07,2.35-0.3,2.71-2.28c0.43-2.35,0.78-4.73,0.71-7.14
			c-0.06-1.98-0.48-2.28-2.31-1.79c-6.63,1.78-13.26,3.51-19.87,5.34C222.26,506.69,215.91,508.54,209.55,510.35z M79.48,524.61
			c0.73-1.32,1.02-2.22,1.61-2.82c1.48-1.49,1.45-3.07,0.66-4.83c-0.33-0.73-0.56-1.49-0.88-2.23c-4.9-11.38-6.53-23.28-5.77-35.6
			c0.39-6.32,2.37-12.2,4.29-18.12c0.34-1.05,1.07-1.67,2.01-2.24c2.37-1.44,3.62-5.83,2.4-8.6c-8.07,11.22-10.74,24.06-12.06,37.25
			C70.44,500.39,73.84,512.52,79.48,524.61z M531.54,791.37c0.82-0.68,1.12-1.42,1.53-2.08c5.52-8.93,9.79-18.5,14.26-27.96
			c2.49-5.27,4.84-10.61,6.88-16.09c3.99-10.71,7.51-21.58,11.06-32.44c0.94-2.88,1.62-5.85,2.43-8.78c0.11-0.4,0.2-0.83-0.19-1.09
			c-0.5-0.33-0.93-0.03-1.25,0.34c-0.85,1.01-1.13,2.27-1.46,3.51c-3.42,12.67-7.8,25.02-12.71,37.17
			c-5.54,13.72-11.92,27.05-19.25,39.92C531.54,786.15,531.06,788.55,531.54,791.37z M164.37,334.75c2.93-1.71,5.97-3.12,8.82-4.87
			c9.14-5.62,18.78-10.28,28.72-14.22c7.35-2.92,6.15-2.04,12.93-8.62c0.11-0.11,0.25-0.2,0.35-0.33c0.26-0.34,0.85-0.58,0.41-1.16
			c-0.43-0.18-0.82-0.02-1.16,0.15c-3.57,1.82-7.46,2.8-11.17,4.27c-10.35,4.09-20.06,9.45-29.76,14.83
			C169.35,327.1,167.01,331.02,164.37,334.75z M258.16,540.1c0-5.07,0.02-10.18-0.01-15.29c-0.02-2.63-0.54-3.11-3.07-3.07
			c-2.35,0.03-2.92,0.58-3,3c-0.16,5.03-0.15,10.05-0.35,15.08c-0.2,5.1-0.05,10.22-0.05,15.33c0,0.8-0.06,1.74,0.69,2.19
			c1.46,0.88,3.12,0.69,4.64,0.29c1.26-0.33,1.07-1.62,1.06-2.65C258.02,550.02,257.48,545.08,258.16,540.1z M186.16,397.04
			c-2.59-0.09-4.58,0.52-6.58,1c-7.91,1.92-15.81,3.89-23.72,5.82c-1.9,0.46-3.61,1.25-5.04,2.62c-1.53,1.46-2.56,3.26-3.51,5.11
			c-0.24,0.46-0.69,0.94-0.12,1.52c0.23-0.03,0.47-0.03,0.69-0.11c9.78-3.24,19.63-6.22,29.79-8.01c0.96-0.17,1.85-0.45,2.59-1.14
			C182.37,401.89,184.15,399.66,186.16,397.04z M99.54,673.46c0.31-1.45-0.22-2.46-0.54-3.47c-0.88-2.74-1.8-5.46-2.5-8.26
			c-2.41-9.62-4.25-19.36-5.94-29.12c-0.38-2.2-0.63-4.43-0.95-6.65c-0.3-2.06-0.95-3.91-3.04-4.83c-0.49-0.22-1.04-0.56-1.56-0.1
			c-0.41,0.37-0.29,0.88-0.17,1.35c0.39,1.48,0.51,3.01,0.49,4.52c-0.09,5.39,0.57,10.68,1.73,15.93
			c2.09,9.5,5.17,18.64,10.07,27.09C97.78,671.07,98.37,672.28,99.54,673.46z M92.23,495.68c0.09-0.71,0.22-1.42,0.27-2.13
			c0.63-8.05,1.84-16.04,3.35-23.94c1.71-8.93,3.3-17.91,5.97-26.63c0.22-0.73,0.53-1.49-0.11-2.43c-2.67,1.96-5.04,4.07-7.12,6.48
			c-0.35,0.41-0.67,0.98-0.7,1.49c-0.22,3.44-1.26,6.74-1.64,10.16c-0.47,4.3-0.46,8.61-0.69,12.91
			C91.14,479.64,90.95,487.7,92.23,495.68z M570.58,693.55c0.36-1.55,0.58-2.8,0.93-4.02c3.22-11.14,5.14-22.58,7.4-33.92
			c1.62-8.14,2.74-16.38,3.96-24.59c1.03-6.95,1.69-13.95,2.29-20.95c0.6-6.92,1.91-13.77,1.69-20.76
			c-0.03-0.82,0.61-2.23-0.33-2.33c-1.24-0.14-0.97,1.38-1.05,2.23c-0.6,6.6-1.03,13.21-1.81,19.8c-1.31,11.02-2.37,22.06-4.3,33.01
			c-1.73,9.83-3.36,19.68-5.4,29.45c-1.28,6.1-2.85,12.13-4.38,18.17C569.24,691.02,569.09,692.29,570.58,693.55z M75.27,607.93
			c0.68-2.81,0.6-5.1-0.34-7.26c-0.49-1.12-1.13-2.36-2.75-2.28c-0.64,0.03-1.09-0.31-1.24-0.91c-0.59-2.32-1.6-4.61-1.35-7.02
			c0.45-4.37,1.11-8.73,3.11-12.74c1.68-3.37,3.49-6.67,5.82-9.63c1.08-1.37,1.45-2.56,0.4-4.07c-0.31-0.44-0.34-1.06-0.55-1.58
			c-0.25-0.64,0-1.63-0.85-1.83c-0.81-0.19-1.18,0.68-1.66,1.18c-0.44,0.46-0.83,0.98-1.21,1.48c-4.41,5.77-6.63,12.38-7.15,19.54
			c-0.53,7.5,0.89,14.65,4.72,21.21C72.95,605.32,73.77,606.58,75.27,607.93z M83.14,513.53c0.17-0.43,0.28-0.57,0.28-0.71
			c-0.02-0.56-0.04-1.12-0.12-1.67c-1.69-12.81-1.46-25.67-1.01-38.53c0.09-2.64,0.01-5.3,0.01-8.27c-1.61,3-3.14,5.64-3.61,8.7
			c-0.95,6.24-1.67,12.44-0.89,18.83C78.7,499.23,80.41,506.31,83.14,513.53z M109.91,518.22c-5.77,0.69-11.55,1.34-17.32,2.09
			c-1.5,0.19-2.33,1.3-2.63,2.75c-0.16,0.78-0.26,1.58-0.32,2.37c-0.1,1.29,0.46,1.87,1.7,1.52c4.02-1.13,8.21-0.97,12.27-1.79
			c3.38-0.69,6.83-0.38,10.24-0.8c1.89-0.23,2.79-1.47,1.69-3.33C114.27,518.87,112.44,517.89,109.91,518.22z M64.63,534.06
			c0.06,4.8,0.18,5.02,4.28,7.34c0.49,0.28,0.98,0.54,1.47,0.79c1.56,0.81,3.18,1.49,4.86,1.98c1.06,0.31,1.66-0.11,1.91-1.18
			c0.75-3.3-0.08-4.92-3.19-6.12c-2.35-0.9-4.39-2.25-6.07-4.13c-0.78-0.87-1.22-1.87-0.91-3.07c0.1-0.4,0.36-0.71,0.79-0.81
			c0.45-0.1,0.77,0.12,1.01,0.46c0.18,0.26,0.28,0.57,0.44,0.85c0.95,1.64,1.45,1.9,3.29,1.34c1.21-0.37,2.37-0.92,3.54-1.42
			c2.14-0.91,2.19-1.03,1.44-3.17c-0.16-0.45-0.33-0.9-0.56-1.32c-0.81-1.44-1.58-1.76-3.16-1.25c-1.14,0.37-2.25,0.82-3.37,1.23
			C65.32,527.48,64.57,528.59,64.63,534.06z M160.34,640.69c0.11-0.2,0.23-0.4,0.34-0.61c-1.79-1.69-3.63-3.33-5.36-5.08
			c-1.06-1.07-2.26-1.71-3.72-1.97c-3.6-0.65-7.2-1.31-10.8-1.99c-1.56-0.3-3.11-0.71-4.68-0.96c-1.22-0.2-1.55,0.16-1.12,1.29
			c1.14,2.94,2.42,5.67,6.13,6.26c5.1,0.8,10.16,1.89,15.25,2.77C157.68,640.62,159.01,641.07,160.34,640.69z M373.65,859.09
			c-1.32-1.36-2.55-2.22-3.81-3.06c-2.46-1.63-4.91-3.3-7.06-5.33c-4.21-3.97-9.23-6.52-14.63-8.4c-0.63-0.22-1.29-0.74-2.13-0.16
			c0.17,1.1,1.08,1.7,1.79,2.38c6.19,5.91,12.88,11.22,20.06,15.88c0.4,0.26,0.81,0.51,1.24,0.73c0.45,0.23,1.04,0.34,1.29-0.15
			C371.03,859.78,372.3,859.67,373.65,859.09z M120.95,703.71c-0.28,0.47-0.03,0.84,0.14,1.16c1.3,2.38,2.61,4.76,3.96,7.11
			c0.44,0.76,1.1,1.37,1.82,1.89c4.82,3.56,9.55,7.25,14.59,10.51c1.65,1.06,3.4,1.97,5.13,2.97c0.24-0.64-0.09-0.82-0.25-1.07
			c-0.21-0.34-0.46-0.66-0.62-1.02c-1.83-4.19-4.94-7.17-8.78-9.55c-5.11-3.16-9.83-6.85-14.31-10.85
			C122.12,704.43,121.73,703.77,120.95,703.71z M155.22,515.43c-1.25,0.17-2.5,0.45-3.75,0.51c-5.49,0.22-10.98,0.55-16.48,0.51
			c-0.64,0-1.28-0.01-1.91,0.05c-2.44,0.24-4.47,1.13-5.51,3.56c-0.19,0.43-0.51,0.81-0.74,1.23c-0.59,1.06-0.44,1.43,0.78,1.48
			c3.43,0.15,6.87,0.15,10.22-0.69C143.86,520.57,149.55,518.06,155.22,515.43z M470.11,227.4c-0.18-0.84-0.96-1.02-1.56-1.35
			c-5.52-2.97-11.42-4.98-17.43-6.68c-2.53-0.72-5.04-1.59-7.68-1.84c-0.98-0.09-2.32-0.41-2.63,0.97
			c-0.34,1.52,1.08,1.48,2.03,1.74c7.5,2.05,14.73,4.79,21.75,8.13c0.94,0.45,1.82,1,2.73,1.5c0.36,0.2,0.85,0.43,1.1,0.1
			C469.05,229.18,469.55,228.28,470.11,227.4z M135.93,411.24c-1.28,0.03-1.93,0.53-2.63,0.87c-3.74,1.78-7.36,3.89-11.23,5.3
			c-3.81,1.39-4.33,4.55-5.15,7.67c-0.22,0.85,0.37,1.15,1.17,0.87c0.37-0.13,0.73-0.32,1.08-0.5c3.57-1.77,7.13-3.54,10.71-5.29
			c1.26-0.61,2.31-1.46,2.95-2.69C133.87,415.51,134.82,413.5,135.93,411.24z M75.82,597.04c0.74-0.51,0.65-1.21,0.75-1.8
			c1.17-7.58,2.16-15.19,4.32-22.58c0.25-0.87,0.51-1.83-0.11-2.8c-0.28,0.19-0.52,0.27-0.64,0.44c-3.1,4.4-5.86,8.96-7.11,14.29
			c-0.48,2.06-0.66,4.12-0.3,6.18C73.15,593.12,74.1,595.27,75.82,597.04z M282.23,734.55c0,0.63-0.07,0.89,0.01,1.09
			c1.64,4.49,3.29,8.98,4.94,13.46c0.43,1.18,1.3,1.77,2.55,1.8c0.88,0.02,1.75,0.07,2.63,0.02c1.66-0.09,1.91-0.38,1.39-1.88
			c-0.94-2.71-1.95-5.39-2.98-8.07c-0.46-1.21-1.17-2.33-2.29-2.99C286.52,736.81,284.48,735.77,282.23,734.55z M95.24,517.49
			c5.15-0.6,10.09-1.61,15.11-2.01c0.97-0.08,1.16-0.74,0.53-1.54c-1-1.26-2.21-2.31-3.51-3.24c-2.48-1.77-4.95-2.11-7.48-0.1
			c-0.37,0.3-0.79,0.56-1.24,0.73c-2.24,0.82-3.27,2.72-4.18,4.7C93.95,517.14,94.21,517.49,95.24,517.49z M397.56,871.13
			c-0.4-0.78-0.77-0.94-1.15-1.04c-3.1-0.84-5.94-2.28-8.81-3.67c-2.58-1.25-5.16-2.5-7.71-3.8c-1.64-0.84-3.35-1.01-5.11-0.68
			c-1.3,0.25-1.58,1.33-0.67,2.29c0.27,0.28,0.6,0.56,0.96,0.69c3.37,1.26,6.32,3.39,9.64,4.73
			C388.78,871.29,392.99,871.68,397.56,871.13z M253.01,506.16c0,0.32,0,0.64,0,0.96c-0.03,3.51,0.52,3.99,4.05,3.69
			c1.26-0.11,1.92-0.64,1.94-1.91c0.04-2.08,0.56-4.1,0.8-6.16c0.15-1.26,0.12-2.54,0.12-3.81c0-0.79-0.38-1.38-1.18-1.6
			c-2.08-0.56-4.71,1.01-5.12,3.14C253.25,502.34,252.95,504.23,253.01,506.16z M107.83,598.89c-0.04,0.29-0.14,0.52-0.09,0.72
			c1.3,6.01,2.54,12.04,3.96,18.02c0.73,3.08,2.93,4.44,6.41,4.41C117.79,620.62,108.86,600.46,107.83,598.89z M105.75,428.1
			c-0.87-0.12-1.28,0.13-1.63,0.45c-1.6,1.44-3.35,2.68-5.06,3.98c-2.49,1.88-3.12,4.69-3.38,7.61c-0.03,0.39-0.05,0.84,0.42,1.01
			c0.43,0.15,0.75-0.15,1.05-0.4c1.67-1.36,3.39-2.65,4.97-4.1C104.6,434.37,105.16,431.28,105.75,428.1z M123.93,633.43
			c-1.01-2.68-2.16-4.84-3.39-6.96c-0.29-0.5-0.78-0.81-1.32-0.99c-1.29-0.41-2.57-0.85-3.89-1.15c-1.14-0.26-1.57,0.11-1.37,1.22
			c0.27,1.48,0.72,2.93,1.14,4.39c0.13,0.46,0.43,0.92,0.9,1.06C118.51,631.74,120.84,633.04,123.93,633.43z M121.14,529.28
			c2.23-1.46,2.36-1.86,1.7-3.97c-0.33-1.04-0.86-1.85-1.84-2.39c-1.39-0.77-2.21-2.03-2.79-3.47c-0.35-0.89-0.71-1.78-1.14-2.63
			c-0.41-0.82-0.58-1.61-0.27-2.52c0.49-1.44-0.09-2.49-1.36-3.2c-1.61-0.9-3.02-2.06-4.39-3.29c-0.56-0.5-1.2-1.78-2.08-0.74
			c-0.78,0.92,0.32,1.56,0.97,2.08c3.6,2.84,6.02,6.54,7.88,10.67C119.17,522.8,120.17,525.91,121.14,529.28z M254.75,519.03
			c0-0.01,0-0.03,0-0.04c0.87,0,1.76,0.09,2.62-0.02c1.37-0.17,1.71-0.78,1.66-2.64c-0.04-1.68-0.36-2.21-1.75-2.3
			c-1.58-0.1-3.19-0.1-4.77,0c-1.45,0.1-1.95,0.9-1.97,2.71c-0.01,1.61,0.43,2.14,2.06,2.28
			C253.31,519.08,254.03,519.03,254.75,519.03z M262.04,645.59c0,0.02,0,0.04,0,0.06c0.71,0,1.42,0,2.14,0
			c0.16,0,0.32-0.01,0.47-0.04c1.31-0.28,1.79-1.32,1.13-2.49c-0.41-0.73-1.06-1.16-1.83-1.42c-1.37-0.46-2.78-0.59-4.22-0.53
			c-1.65,0.07-2.24,0.5-2.37,1.72c-0.15,1.41,0.6,2.46,2.07,2.68C260.28,645.69,261.17,645.59,262.04,645.59z M274.04,391.96
			c-0.57-0.03-1.28-0.09-2-0.1c-1.91-0.04-2.94,1.01-2.92,2.92c0.01,0.64,0.26,1.18,0.88,1.24c2.14,0.21,4.3,0.35,6.42-0.1
			c1.02-0.22,1.88-2.08,1.59-3.17c-0.36-1.36-1.48-0.87-2.38-0.86C275.14,391.9,274.67,391.93,274.04,391.96z M87.83,588.97
			c-1.31,3.4-2.68,13.97-2.34,16.77c0.09,0.73,0.29,1.41,0.82,1.94c0.34,0.34,0.72,0.74,1.23,0.61c0.73-0.18,0.63-0.85,0.58-1.38
			c-0.26-2.78-0.28-5.58-0.29-8.37C87.82,595.53,87.83,592.53,87.83,588.97z M293.52,757.57c0-0.02,0-0.04,0-0.06
			c0.71,0,1.43,0.05,2.14-0.01c1.55-0.14,1.87-0.9,0.98-2.22c-0.41-0.61-0.93-1.18-1.69-1.21c-1.74-0.07-3.49-0.13-5.23,0
			c-1.04,0.07-1.4,1.02-0.9,1.96c0.44,0.82,1.15,1.32,2.08,1.41C291.78,757.52,292.65,757.53,293.52,757.57z M98.57,620.22
			c0.12,1.44,0.51,2.88,1.1,4.28c0.29,0.69,0.81,1.17,1.51,1.44c0.57,0.22,1.17,0.64,1.8,0.23c0.77-0.5,0.52-1.25,0.34-1.93
			c-0.28-1.07-0.56-2.14-0.91-3.19c-0.28-0.84-0.73-1.59-1.47-2.11c-0.52-0.36-1.07-0.75-1.74-0.45
			C98.45,618.81,98.61,619.52,98.57,620.22z M84.57,614.39c0.03,2.06,1.68,4.16,3.49,4.59c0.81,0.19,1.02-0.33,0.84-0.98
			c-0.44-1.54-0.63-3.11-0.68-4.71c-0.04-1.07-0.68-1.76-1.57-2.22c-0.65-0.34-1.23-0.34-1.5,0.52
			C84.82,612.58,84.54,613.57,84.57,614.39z M97.98,602.05c-0.25,3.46-0.51,6.87-0.1,10.27c0.14,1.13,0.39,2.22,1.4,2.93
			c0.38,0.27,0.83,0.58,1.3,0.22c0.37-0.29,0.25-0.74,0.15-1.12c-0.82-3.09-1.46-6.22-2.06-9.35
			C98.48,604.01,98.21,603.04,97.98,602.05z M386.3,227.56c-0.07-0.17-0.14-0.34-0.21-0.51c-3.1,0.56-6.21,1.11-9.3,1.7
			c-0.45,0.09-0.89,0.34-1.3,0.56c-0.37,0.19-0.63,0.5-0.54,0.96c0.09,0.45,0.43,0.68,0.84,0.71c1.58,0.11,3.19,0.39,4.68-0.34
			C382.44,229.67,384.36,228.59,386.3,227.56z M273.15,399.24c-3.1-0.01-4.57,1.4-4.58,3.98c0,0.47,0.25,0.9,0.67,0.73
			c2.04-0.83,4.14-1.58,5.92-2.92c0.64-0.48,0.31-1.41-0.53-1.63C274.03,399.24,273.38,399.26,273.15,399.24z M315.55,293.79
			C315.55,293.79,315.55,293.79,315.55,293.79c-0.79,0-1.59-0.01-2.38,0c-0.75,0.01-1.4,0.25-1.9,0.82
			c-0.68,0.77-0.45,1.57,0.6,1.68c1.81,0.19,3.64,0.19,5.45-0.08c0.38-0.06,0.75-0.26,1.07-0.48c0.41-0.27,0.71-0.66,0.61-1.2
			c-0.11-0.59-0.59-0.71-1.07-0.73C317.14,293.77,316.34,293.79,315.55,293.79z M122.16,534.79c0.34,3.3,0.92,6.55,1.06,9.85
			c0.02,0.45,0.11,1.04,0.72,1.08c0.59,0.04,1.05-0.34,1.35-0.83c0.61-0.98,0.56-4.58-0.33-5.25
			C123.31,538.37,122.69,536.66,122.16,534.79z M307.52,302.34c1.88-0.12,5.38-2.01,6.41-3.46
			C310.48,298.35,308.36,299.48,307.52,302.34z M127.8,571.32c-0.8,1.95-2.36,3.61-2.14,6.01c1.28-1.14,2.25-2.49,3.59-3.48
			c0.45-0.34,0.49-0.87,0.08-1.25C128.88,572.19,128.66,571.5,127.8,571.32z M74.6,533.97c0.74,1.08,1.76,1.24,2.77,1.43
			c0.51,0.1,0.98,0.04,1.21-0.47c0.27-0.58,0.46-1.2,0.12-1.82c-0.32-0.57-0.84-0.71-1.43-0.54
			C76.36,532.83,75.46,533.12,74.6,533.97z M370.52,230.73c-3.02,0.24-5.89,1-8.66,2.17c1.66,0.8,3.25,0.32,4.66-0.44
			C367.81,231.76,369.01,230.94,370.52,230.73z M130.24,563.98c4.29-2.46,3.09-2.4,1.33-4.95c-0.03-0.04-0.14-0.03-0.36-0.07
			C130.64,560.48,130.4,562.06,130.24,563.98z M125.68,568.42c1.8-3.7,2.58-7.71,2.05-10.12
			C127.46,561.77,126.08,565.01,125.68,568.42z"/>
	</g>
</g>
</svg>
